<svg width="512" height="512" viewBox="0 0 512 512" version="1.1" xmlns="http://www.w3.org/2000/svg" xmlns:xlink="http://www.w3.org/1999/xlink">
<title>002-viber</title>
<desc>Created using Figma</desc>
<g id="Canvas" transform="translate(-436 -52)">
<g id="002-viber">
<g id="Vector">
<use xlink:href="#path0_fill" transform="translate(436 52)" fill="#6F3FAA"/>
</g>
<g id="Group">
<g id="Vector">
<use xlink:href="#path1_fill" transform="translate(550.234 161.469)" fill="#FFFFFF"/>
</g>
<g id="Vector">
<use xlink:href="#path2_fill" transform="translate(618.19 225.467)" fill="#FFFFFF"/>
</g>
<g id="Vector">
<use xlink:href="#path3_fill" transform="translate(685.888 217.412)" fill="#FFFFFF"/>
</g>
<g id="Vector">
<use xlink:href="#path4_fill" transform="translate(692.188 235.753)" fill="#FFFFFF"/>
</g>
<g id="Vector">
<use xlink:href="#path5_fill" transform="translate(697.401 254.547)" fill="#FFFFFF"/>
</g>
</g>
<g id="Vector">
<use xlink:href="#path6_fill" transform="translate(731.603 365.713)" fill="#FFFFFF"/>
</g>
<g id="Group">
<g id="Vector">
<use xlink:href="#path7_fill" transform="translate(692.064 217.427)" fill="#FFFFFF"/>
</g>
<g id="Vector">
<use xlink:href="#path8_fill" transform="translate(692.072 217.426)" fill="#FFFFFF"/>
</g>
</g>
<g id="Group">
<g id="Vector">
<use xlink:href="#path9_fill" transform="translate(744.137 284.061)" fill="#FFFFFF"/>
</g>
<g id="Vector">
<use xlink:href="#path10_fill" transform="translate(722.505 284.157)" fill="#FFFFFF"/>
</g>
<g id="Vector">
<use xlink:href="#path11_fill" transform="translate(721.842 284.167)" fill="#FFFFFF"/>
</g>
<g id="Vector">
<use xlink:href="#path12_fill" transform="translate(722.872 284.157)" fill="#FFFFFF"/>
</g>
</g>
</g>
</g>
<defs>
<path id="path0_fill" d="M 256 512C 397.385 512 512 397.385 512 256C 512 114.615 397.385 0 256 0C 114.615 0 0 114.615 0 256C 0 397.385 114.615 512 256 512Z"/>
<path id="path1_fill" d="M 277.193 70.4555L 277.109 70.1175C 270.269 42.4645 239.431 12.7925 211.111 6.6195L 210.792 6.5535C 164.986 -2.1845 118.541 -2.1845 72.745 6.5535L 72.416 6.6195C 44.106 12.7925 13.267 42.4665 6.418 70.1175L 6.342 70.4555C -2.114 109.072 -2.114 148.236 6.342 186.853L 6.418 187.191C 12.976 213.663 41.517 241.973 68.78 249.758L 68.78 280.626C 68.78 291.799 82.395 297.286 90.137 289.223L 121.412 256.715C 128.196 257.094 134.983 257.305 141.768 257.305C 164.825 257.305 187.893 255.125 210.791 250.757L 211.11 250.69C 239.43 244.517 270.268 214.844 277.108 187.193L 277.192 186.854C 285.648 148.236 285.648 109.074 277.193 70.4555ZM 252.442 181.254C 247.875 199.295 224.461 221.723 205.857 225.867C 181.502 230.499 156.953 232.478 132.429 231.799C 131.941 231.785 131.472 231.976 131.133 232.326C 127.652 235.898 108.298 255.767 108.298 255.767L 84.01 280.695C 82.234 282.547 79.114 281.287 79.114 278.732L 79.114 227.595C 79.114 226.75 78.511 226.034 77.681 225.87C 77.676 225.868 77.672 225.867 77.667 225.866C 59.063 221.722 35.657 199.294 31.082 181.253C 23.471 146.347 23.471 110.962 31.082 76.0555C 35.657 58.0145 59.063 35.5865 77.667 31.4425C 120.203 23.3525 163.331 23.3525 205.858 31.4425C 224.471 35.5865 247.876 58.0145 252.443 76.0555C 260.062 110.963 260.062 146.348 252.442 181.254Z"/>
<path id="path2_fill" d="M 114.28 140.86C 111.42 139.991 108.695 139.408 106.162 138.359C 79.931 127.476 55.791 113.436 36.67 91.9154C 25.796 79.6774 17.285 65.8604 10.091 51.2384C 6.67899 44.3044 3.80399 37.0994 0.872986 29.9394C -1.79901 23.4114 2.13698 16.6674 6.28098 11.7474C 10.17 7.13037 15.175 3.59837 20.595 0.993369C 24.825 -1.03863 28.997 0.13336 32.087 3.71836C 38.765 11.4704 44.901 19.6184 49.867 28.6044C 52.922 34.1314 52.084 40.8874 46.547 44.6484C 45.201 45.5624 43.975 46.6364 42.722 47.6684C 41.622 48.5734 40.588 49.4874 39.834 50.7124C 38.457 52.9534 38.391 55.5984 39.277 58.0354C 46.104 76.7964 57.611 91.3864 76.496 99.2454C 79.518 100.502 82.552 101.965 86.034 101.56C 91.864 100.879 93.752 94.4834 97.838 91.1424C 101.831 87.8774 106.935 87.8344 111.236 90.5564C 115.539 93.2804 119.709 96.2024 123.855 99.1574C 127.925 102.057 131.976 104.892 135.729 108.199C 139.339 111.378 140.582 115.548 138.549 119.861C 134.829 127.762 129.414 134.333 121.605 138.529C 119.4 139.711 116.766 140.094 114.28 140.86C 116.766 140.094 111.42 139.991 114.28 140.86Z"/>
<path id="path3_fill" d="M 6.18312 0.0135634C 40.4921 0.975563 68.6731 23.7446 74.7121 57.6646C 75.7411 63.4446 76.1071 69.3526 76.5651 75.2196C 76.7581 77.6866 75.3601 80.0306 72.6981 80.0636C 69.9481 80.0966 68.7111 77.7946 68.5311 75.3296C 68.1781 70.4476 67.9331 65.5426 67.2601 60.7026C 63.7091 35.1436 43.3291 13.9986 17.8891 9.46156C 14.0601 8.77856 10.1441 8.59956 6.26512 8.19256C 3.81412 7.93556 0.604114 7.78756 0.0611141 4.73956C -0.393886 2.18456 1.7621 0.150575 4.1951 0.0195754C 4.8541 -0.0194246 5.51912 0.0115634 6.18312 0.0135634C 5.51912 0.0115634 40.4941 0.975563 6.18312 0.0135634Z"/>
<path id="path4_fill" d="M 52.0241 49.2663C 51.9671 49.6953 51.938 50.7023 51.686 51.6503C 50.776 55.0943 45.5521 55.5253 44.3511 52.0503C 43.9941 51.0193 43.9411 49.8453 43.9391 48.7353C 43.9271 41.4693 42.3481 34.2093 38.6831 27.8863C 34.9161 21.3873 29.1601 15.9262 22.4111 12.6192C 18.3291 10.6212 13.9161 9.37825 9.44206 8.63925C 7.48706 8.31525 5.51106 8.12025 3.54606 7.84625C 1.16506 7.51525 -0.106941 5.99825 0.00705918 3.65225C 0.112059 1.45425 1.71906 -0.128743 4.11506 0.00825692C 11.9881 0.454257 19.594 2.15826 26.595 5.86426C 40.829 13.4033 48.9611 25.3013 51.3351 41.1903C 51.4421 41.9113 51.614 42.6233 51.669 43.3453C 51.803 45.1273 51.8881 46.9123 52.0241 49.2663C 51.8881 46.9123 51.9671 49.6933 52.0241 49.2663Z"/>
<path id="path5_fill" d="M 25.4715 29.6409C 22.6015 29.6929 21.0655 28.1029 20.7685 25.4729C 20.5635 23.6389 20.3995 21.7789 19.9615 19.9929C 19.0995 16.4759 17.2305 13.2179 14.2725 11.0629C 12.8765 10.0459 11.2935 9.30488 9.63646 8.82488C 7.53146 8.21588 5.34346 8.38389 3.24446 7.86989C 0.963463 7.31089 -0.298527 5.46289 0.0604726 3.32389C 0.386473 1.37589 2.28047 -0.144117 4.40947 0.0108829C 17.7115 0.970883 27.2185 7.84788 28.5755 23.5079C 28.6725 24.6129 28.7845 25.7799 28.5395 26.8389C 28.1175 28.6459 26.7775 29.5529 25.4715 29.6409C 26.7775 29.5529 22.6005 29.6919 25.4715 29.6409Z"/>
<path id="path6_fill" d="M 0.866968 0.613728C 3.35297 -0.152272 -1.99303 -0.255272 0.866968 0.613728L 0.866968 0.613728Z"/>
<path id="path7_fill" d="M 0.0954284 0.00380482C 0.0664284 0.00380482 0.0384299 0.000798836 0.00942989 0.000798836C -0.0185701 -0.00120116 0.0174284 0.000804817 0.0954284 0.00380482Z"/>
<path id="path8_fill" d="M -9.0332e-06 -5.12695e-06C 0.028991 -5.12695e-06 0.0569895 0.00300085 0.0859895 0.00300085C 1.98999 0.0710009 32.958 0.923995 -9.0332e-06 -5.12695e-06Z"/>
<path id="path9_fill" d="M 0.0751967 0.957571C -0.0608033 -1.39643 0.0181967 1.38457 0.0751967 0.957571L 0.0751967 0.957571Z"/>
<path id="path10_fill" d="M 0.367009 0.0310035C 0.412009 0.0280035 0.454991 0.00499768 0.497991 -2.31934e-06C 0.376991 -2.31934e-06 0.191005 0.00300745 4.88281e-06 0.0100074C 0.124005 0.0130074 0.237009 0.0320035 0.367009 0.0310035Z"/>
<path id="path11_fill" d="M 1.03033 0.0210035C 0.901326 0.0230035 0.787321 0.00400745 0.663321 7.44629e-06C 0.0423213 0.0170074 -0.598674 0.0500035 1.03033 0.0210035Z"/>
<path id="path12_fill" d="M 0.130991 -2.31934e-06C 0.0859907 0.00499768 0.0430093 0.0280035 9.27734e-06 0.0310035C 0.336009 0.00800354 0.306991 -2.31934e-06 0.130991 -2.31934e-06Z"/>
</defs>
</svg>
