<svg width="496" height="497" viewBox="0 0 496 497" version="1.1" xmlns="http://www.w3.org/2000/svg" xmlns:xlink="http://www.w3.org/1999/xlink">
<title>003-whatsapp</title>
<desc>Created using Figma</desc>
<g id="Canvas" transform="translate(-948 -67)">
<g id="003-whatsapp">
<g id="Vector">
<use xlink:href="#path0_fill" transform="translate(1030 167)" fill="#FFFFFF"/>
</g>
<g id="Vector">
<use xlink:href="#path1_fill" transform="translate(948 67)" fill="#7FD371"/>
</g>
<g id="Vector">
</g>
<g id="Vector">
<use xlink:href="#path2_fill" transform="translate(1050.3 249.9)" fill="#5CAA4F"/>
</g>
</g>
</g>
<defs>
<path id="path0_fill" d="M 332 0L 0 0L 0 297L 332 297L 332 0Z"/>
<path id="path1_fill" d="M 248.1 0L 247.9 0C 111.2 0 0 111.2 0 248C 0 302.2 17.5 352.5 47.2 393.4L 16.3 485.6L 111.6 455.1C 150.8 481.1 197.6 496.1 248 496.1C 384.8 496 496 384.8 496 248C 496 111.2 384.8 0 248.1 0ZM 392.4 350.2C 386.4 367.1 362.7 381.1 343.7 385.2C 330.7 388 313.8 390.2 256.8 366.5C 183.9 336.4 137 262.3 133.4 257.5C 129.9 252.7 104 218.3 104 182.7C 104 147.1 122.1 129.8 129.4 122.3C 135.4 116.2 145.3 113.4 154.8 113.4C 157.9 113.4 160.6 113.5 163.1 113.7C 170.4 114 174 114.5 178.8 126C 184.8 140.4 199.4 176 201.1 179.6C 202.8 183.2 204.6 188.2 202.1 193C 199.8 198 197.7 200.2 194.1 204.4C 190.4 208.6 186.9 211.8 183.3 216.4C 179.9 220.3 176.1 224.6 180.4 231.9C 184.6 239.1 199.2 262.8 220.6 281.9C 248.3 306.5 270.7 314.4 278.8 317.8C 284.8 320.3 291.9 319.7 296.3 315C 301.8 309 308.7 299.1 315.7 289.3C 320.7 282.3 326.9 281.4 333.5 283.9C 340.2 286.2 375.6 303.7 382.9 307.4C 390.2 311 395 312.8 396.7 315.9C 398.4 318.9 398.4 333.3 392.4 350.2Z"/>
<path id="path2_fill" d="M 1.6 -6.10352e-06L 3.05176e-06 1.6L 1.8 3.4C 1.7 2.3 1.6 1.09999 1.6 -6.10352e-06Z"/>
</defs>
</svg>
