<svg width="512" height="512" viewBox="0 0 512 512" version="1.1" xmlns="http://www.w3.org/2000/svg" xmlns:xlink="http://www.w3.org/1999/xlink">
<title> 1</title>
<desc>Created using Figma</desc>
<g id="Canvas" transform="translate(-712 -788)">
<g id=" 1">
<g id="Vector">
<use xlink:href="#path0_fill" transform="translate(712 788)" fill="#59AAE7"/>
</g>
<g id="Vector">
<use xlink:href="#path1_fill" transform="translate(792.417 889.752)" fill="#FCFCFC"/>
</g>
<g id="Vector">
<use xlink:href="#path2_fill" transform="translate(911.797 961.211)" fill="#D8D7DA"/>
</g>
</g>
</g>
<defs>
<path id="path0_fill" d="M 256 512C 397.385 512 512 397.385 512 256C 512 114.615 397.385 0 256 0C 114.615 0 0 114.615 0 256C 0 397.385 114.615 512 256 512Z"/>
<path id="path1_fill" d="M 84.2723 209.389L 1.71032 168.108C -0.552676 166.976 -0.574678 163.755 1.67232 162.592L 315.333 0.35315C 317.637 -0.83885 320.297 1.16415 319.789 3.70815L 265.785 273.725C 265.4 275.652 263.339 276.736 261.532 275.962L 188.139 244.509C 187.26 244.132 186.255 244.183 185.418 244.648L 90.5793 297.336C 88.5173 298.481 85.9823 296.991 85.9823 294.631L 85.9823 212.157C 85.9833 210.984 85.3213 209.913 84.2723 209.389Z"/>
<path id="path2_fill" d="M 0.513022 165.756L 2.15427e-05 83.3276C -0.00297846 82.7996 0.270023 82.3096 0.720023 82.0346L 134.619 0.236632C 136.137 -0.690368 137.725 1.31963 136.471 2.58163L 34.571 105.206C 34.459 105.32 34.364 105.45 34.293 105.593L 16.863 140.451L 3.35403 166.439C 2.62903 167.834 0.523022 167.327 0.513022 165.756Z"/>
</defs>
</svg>
