<?xml version="1.0" encoding="utf-8"?>
<!-- Generator: Adobe Illustrator 19.0.0, SVG Export Plug-In . SVG Version: 6.00 Build 0)  -->
<svg version="1.1" id="Layer_1" xmlns="http://www.w3.org/2000/svg" xmlns:xlink="http://www.w3.org/1999/xlink" x="0px" y="0px"
	 viewBox="-235 379 141 36" style="enable-background:new -235 379 141 36;" xml:space="preserve">
<style type="text/css">
	.st0{fill:#FFFFFF;}
</style>
<title>logo_white@3x</title>
<desc>Created with Sketch.</desc>
<g id="lofto">
	<g id="images" transform="translate(-771.000000, -50.000000)">
		<g id="logo_white" transform="translate(771.000000, 50.000000)">
			<path id="svg_1" class="st0" d="M-227.5,380.5v26.7h11c0.3,0,0.5,0.1,0.7,0.2c0.2,0.2,0.4,0.5,0.4,0.7v5.5c0,0.3-0.1,0.5-0.4,0.7
				l0,0c-0.2,0.1-0.4,0.2-0.7,0.2h-17.5c-0.3,0-0.5-0.1-0.7-0.2l0,0c-0.2-0.2-0.4-0.5-0.4-0.7v-33.2c0-0.3,0.1-0.5,0.4-0.7
				c0.2-0.1,0.4-0.2,0.7-0.2h5.5c0.3,0,0.5,0.1,0.7,0.3l0,0C-227.6,380-227.5,380.2-227.5,380.5L-227.5,380.5z"/>
			<path id="svg_2" class="st0" d="M-187,401.7c-2.4,2.4-5.6,3.9-9.3,3.9c-3.6,0-6.9-1.5-9.3-3.9c-2.4-2.4-3.9-5.7-3.9-9.4
				c0-3.6,1.5-7,3.9-9.4c2.4-2.4,5.6-3.9,9.2-3.9c3.6,0,6.9,1.5,9.2,3.9c2.4,2.4,3.9,5.8,3.9,9.4C-183.2,396-184.6,399.3-187,401.7
				L-187,401.7z M-192.3,388.2c-1-1-2.4-1.7-4-1.7c-1.6,0-3,0.6-4,1.7s-1.6,2.5-1.6,4.2c0,1.7,0.6,3.1,1.6,4.2c1,1.1,2.4,1.7,4,1.7
				c1.6,0,3-0.6,4-1.7c1-1,1.6-2.5,1.6-4.2C-190.6,390.7-191.2,389.2-192.3,388.2z M-185,407.5c0.2,0.2,0.4,0.5,0.4,0.7v5.5
				c0,0.3-0.1,0.5-0.4,0.7c-0.2,0.1-0.4,0.2-0.7,0.2h-21.4c-0.3,0-0.5-0.1-0.7-0.2c-0.2-0.2-0.4-0.5-0.4-0.7v-5.5
				c0-0.3,0.1-0.5,0.4-0.7c0.2-0.1,0.4-0.2,0.7-0.2h21.4C-185.4,407.2-185.2,407.3-185,407.5z"/>
			<path id="svg_3" class="st0" d="M-153.7,386.7c-0.2,0.1-0.4,0.2-0.7,0.2h-15.2v6.5h12.5c0.3,0,0.5,0.1,0.7,0.3
				c0.2,0.2,0.3,0.4,0.3,0.7v5.4c0,0.3-0.1,0.5-0.3,0.7l0,0c-0.2,0.2-0.4,0.3-0.7,0.3h-12.5v12.9c0,0.3-0.1,0.5-0.4,0.7l0,0
				c-0.2,0.1-0.4,0.2-0.7,0.2h-5.4c-0.3,0-0.5-0.1-0.7-0.2l0,0c-0.2-0.2-0.4-0.5-0.4-0.7v-33.2c0-0.3,0.1-0.6,0.4-0.7l0,0
				c0.2-0.1,0.4-0.2,0.7-0.2h21.6c0.3,0,0.5,0.1,0.7,0.2c0.2,0.2,0.4,0.5,0.4,0.7v5.5C-153.4,386.3-153.5,386.5-153.7,386.7
				L-153.7,386.7L-153.7,386.7z"/>
			<path id="svg_4" class="st0" d="M-126.9,379.7L-126.9,379.7c0.2,0.2,0.4,0.5,0.4,0.7v5c0,0.3-0.1,0.6-0.4,0.7l0,0
				c-0.2,0.1-0.4,0.2-0.7,0.2h-5.8v27.2c0,0.3-0.1,0.5-0.4,0.7c-0.2,0.1-0.4,0.2-0.7,0.2h-5.4c-0.3,0-0.5-0.1-0.7-0.2
				c-0.2-0.2-0.4-0.5-0.4-0.7v-27.2h-5.8c-0.3,0-0.5-0.1-0.7-0.2l0,0c-0.2-0.2-0.4-0.5-0.4-0.7v-5c0-0.3,0.1-0.5,0.4-0.7
				c0.2-0.1,0.4-0.2,0.7-0.2h19C-127.4,379.5-127.1,379.6-126.9,379.7L-126.9,379.7z"/>
			<path id="svg_5" class="st0" d="M-98.8,401.7c-2.4,2.4-5.6,3.9-9.3,3.9c-3.6,0-6.9-1.5-9.3-3.9c-2.4-2.4-3.9-5.7-3.9-9.4
				c0-3.6,1.5-7,3.9-9.4c2.4-2.4,5.6-3.9,9.2-3.9c3.6,0,6.9,1.5,9.2,3.9c2.4,2.4,3.9,5.8,3.9,9.4C-94.9,396-96.4,399.3-98.8,401.7z
				 M-104,388.2c-1-1-2.4-1.7-4-1.7c-1.6,0-3,0.6-4,1.7s-1.6,2.5-1.6,4.2c0,1.7,0.6,3.1,1.6,4.2c1,1.1,2.4,1.7,4,1.7
				c1.6,0,3-0.6,4-1.7c1-1,1.6-2.5,1.6-4.2C-102.4,390.7-103,389.2-104,388.2z M-96.8,407.5c0.2,0.2,0.4,0.5,0.4,0.7v5.5
				c0,0.3-0.1,0.5-0.4,0.7c-0.2,0.1-0.4,0.2-0.7,0.2h-21.4c-0.3,0-0.5-0.1-0.7-0.2l0,0c-0.2-0.2-0.4-0.5-0.4-0.7v-5.5
				c0-0.3,0.1-0.5,0.4-0.7l0,0c0.2-0.1,0.4-0.2,0.7-0.2h21.4C-97.2,407.2-97,407.3-96.8,407.5L-96.8,407.5z"/>
		</g>
	</g>
</g>
</svg>
