<svg width="53" height="60" viewBox="0 0 53 60" fill="none" xmlns="http://www.w3.org/2000/svg">
<path d="M28.278 6.88V3.78255H31.0006C31.6094 3.78255 32.1 3.28964 32.1 2.67869V1.10386C32.1 0.492912 31.6094 0 31.0006 0H21.7635C21.1547 0 20.6635 0.492912 20.6635 1.10386V2.67928C20.6635 3.29023 21.1547 3.78314 21.7635 3.78314H24.7108V6.88C10.914 7.80117 0 19.3214 0 33.4136C0 48.0942 11.8645 60 26.4947 60C41.1249 60 53 48.0942 53 33.4136C53 19.3214 42.0754 7.80117 28.278 6.88ZM26.4947 55.7346C14.2034 55.7346 4.23993 45.7364 4.23993 33.413C4.23993 21.0784 14.2034 11.0801 26.4947 11.0801C38.7865 11.0801 48.7494 21.0784 48.7494 33.413C48.7494 45.7364 38.7865 55.7346 26.4947 55.7346Z" fill="#0085FF"/>
<path d="M14.8649 40.0463V37.9572L16.7658 36.2204C19.9908 33.3383 21.5502 31.6768 21.6034 29.9413C21.6034 28.7413 20.8769 27.7769 19.1686 27.7769C17.8978 27.7769 16.7871 28.4198 16.0181 29.0094L15.0463 26.5342C16.157 25.6878 17.8765 25.0021 19.8732 25.0021C23.2052 25.0021 25.0418 26.963 25.0418 29.653C25.0418 32.1288 23.2584 34.1112 21.1228 36.0181L19.7556 37.1647V37.2074H25.3196V40.0475H14.8649V40.0463Z" fill="#0085FF"/>
<path d="M33.553 40.0463V36.5205H27.0178V34.2707L32.6031 25.2583H36.8217V33.9279H38.5832V36.5205H36.8217V40.0463H33.553ZM33.553 33.9279V30.6483C33.553 29.7592 33.5955 28.8481 33.6606 27.8943H33.5748C33.0943 28.8481 32.7095 29.7159 32.2076 30.6483L30.2428 33.8851V33.9279H33.553Z" fill="#0085FF"/>
<path d="M27.5728 12.4414H25.1813V17.1457H27.5728V12.4414Z" fill="#0085FF"/>
<path d="M27.5728 49.5735H25.1813V54.2778H27.5728V49.5735Z" fill="#0085FF"/>
<path d="M47.4685 32.213H42.78V34.6022H47.4685V32.213Z" fill="#0085FF"/>
<path d="M10.1982 32.2338H5.49957V34.6343H10.1982V32.2338Z" fill="#0085FF"/>
<path d="M41.7328 19.2247L40.676 18.1638L38.6038 20.2426L39.6607 21.3034L41.7328 19.2247Z" fill="#0085FF"/>
<path d="M13.5523 21.5071L14.6093 20.4464L12.5375 18.3673L11.4804 19.4281L13.5523 21.5071Z" fill="#0085FF"/>
<path d="M39.6613 45.7257L38.6044 46.7869L40.6762 48.8765L41.7337 47.816L39.6613 45.7257Z" fill="#0085FF"/>
<path d="M11.1058 47.8157L12.1631 48.877L14.2457 46.7877L13.1884 45.7264L11.1058 47.8157Z" fill="#0085FF"/>
</svg>
