<svg width="108" height="50" viewBox="0 0 108 50" fill="none" xmlns="http://www.w3.org/2000/svg">
<path d="M0.989995 18.9294L23.724 10.182C24.742 9.79046 25.8402 10.5323 25.8402 11.6135V13.8551C25.8402 14.5067 25.4231 15.0873 24.8033 15.3059L14.6316 18.85L6.79375 21.6117V21.8413L14.6316 24.5991L24.8027 28.1438C25.4231 28.3618 25.8396 28.9418 25.8396 29.594V31.8356C25.8396 32.9168 24.7414 33.6587 23.7234 33.2671L0.989995 24.5197C0.392348 24.2901 0 23.7211 0 23.0883V20.3608C0 19.728 0.392348 19.159 0.989995 18.9294Z" fill="#0085FF"/>
<path d="M43.2313 0H44.5445C45.5665 0 46.3088 0.956663 46.0442 1.93268L33.3457 48.8621C33.1651 49.5362 32.5499 50 31.846 50H30.5327C29.5108 50 28.7685 49.0433 29.0311 48.0673L41.7297 1.13793C41.9121 0.467043 42.5267 0 43.2313 0Z" fill="#0085FF"/>
<path d="M53.5757 0.229614H57.1524C58.0056 0.229614 58.7055 0.918566 58.7055 1.76621V10.6903L58.4702 16.1484C60.8524 13.9074 63.6992 11.8954 67.5888 11.8954C73.6851 11.8954 76.3573 15.9749 76.3573 23.1024V39.2702C76.3573 40.1172 75.6612 40.8036 74.8042 40.8036H71.2313C70.375 40.8036 69.6782 40.1179 69.6782 39.2702V23.9656C69.6782 19.3093 68.3422 17.5882 65.2066 17.5882C62.8773 17.5882 61.3092 18.6359 59.178 20.6395C58.873 20.9259 58.7055 21.3291 58.7055 21.7471V39.2715C58.7055 40.1185 58.0056 40.8049 57.1524 40.8049H53.5757C52.7225 40.8049 52.0265 40.1192 52.0265 39.2715V1.76686C52.0265 0.919212 52.7232 0.229614 53.5757 0.229614Z" fill="#0085FF"/>
<path d="M107.01 24.5197L84.2773 33.2671C83.2606 33.6587 82.1611 32.9168 82.1611 31.8357V29.594C82.1611 28.9418 82.5763 28.3619 83.2007 28.1438L93.3704 24.5991L101.21 21.8414V21.6117L93.3704 18.8501L83.2007 15.3053C82.5763 15.0867 82.1611 14.5067 82.1611 13.8545V11.6129C82.1611 10.5317 83.2613 9.78985 84.2773 10.1814L107.01 18.9288C107.608 19.1584 108 19.7274 108 20.3602V23.0877C108 23.7211 107.608 24.2901 107.01 24.5197Z" fill="#0085FF"/>
</svg>
