<svg width="71" height="30" viewBox="0 0 71 30" fill="none" xmlns="http://www.w3.org/2000/svg">
<path d="M0.000495979 27.176C0.558424 27.1365 1.11586 27.0717 1.67428 27.0635C2.46113 27.0513 3.1127 26.6758 3.78955 26.3645C4.03432 26.252 4.16712 26.0528 4.22658 25.7825C4.39108 25.0363 4.67451 24.3383 5.08577 23.6827C5.2691 23.3905 5.32608 23.0242 5.47225 22.7057C5.77302 22.0506 6.02126 21.3799 6.18378 20.679C6.19469 20.6332 6.19072 20.584 6.19716 20.4851C5.8741 20.695 5.55203 20.8524 5.29784 21.0823C4.8618 21.4768 4.46788 21.9161 4.05662 22.337C4.03185 22.7841 3.60671 22.7695 3.33716 22.9292C3.28514 22.9599 3.17959 22.9468 3.12063 22.9151C2.80946 22.7485 2.50423 22.5707 2.19901 22.393C2.15392 22.3667 2.09347 22.3214 2.08951 22.28C2.04788 21.8718 2.02014 21.4627 1.9805 21.0545C1.96563 20.8977 2.01964 20.7886 2.16234 20.7209C2.41802 20.5991 2.68608 20.4983 2.9264 20.3526C3.31883 20.114 3.70036 19.8558 4.07297 19.5875C4.37077 19.3736 4.64428 19.1267 4.93811 18.9075C5.02977 18.8393 5.17941 18.8383 5.25869 18.7624C5.64964 18.3863 6.02423 17.9938 6.40775 17.6109C6.48554 17.533 6.56829 17.4482 6.6664 17.4044C6.82 17.3353 6.98599 17.2875 7.15149 17.25C7.46068 17.1799 7.60487 16.9587 7.69604 16.6933C7.76689 16.4868 7.81694 16.2739 7.85856 16.0557C7.83032 16.1137 7.80158 16.1712 7.78027 16.2145C7.2709 16.2491 6.78878 16.1858 6.33987 15.97C6.19667 15.9013 6.04604 15.8112 5.94941 15.6914C5.82901 15.5414 5.69423 15.5915 5.55649 15.5969C5.5005 15.5993 5.44599 15.6247 5.39 15.6325C4.73149 15.7196 4.48374 15.4513 4.37721 14.6724C4.37077 14.6257 4.36532 14.5784 4.35739 14.5127C3.93275 14.6559 3.52 14.7884 3.1127 14.9355C2.85604 15.0285 2.61423 15.1668 2.35261 15.2409C2.17077 15.2925 1.94383 15.331 1.77833 15.2691C1.45428 15.1478 1.13865 15.1951 0.817073 15.2048C0.71401 15.2077 0.607974 15.2335 0.508875 15.2165C0.449911 15.2063 0.366171 15.1386 0.359234 15.0879C0.351802 15.0329 0.420181 14.9676 0.462298 14.8945C0.38946 14.8522 0.295316 14.7971 0.200677 14.7421C0.202659 14.7226 0.20464 14.7036 0.206622 14.6841C0.515316 14.6841 0.82401 14.6846 1.1327 14.6832C1.17333 14.6832 1.21991 14.6817 1.2541 14.6637C1.40423 14.5848 1.54595 14.4869 1.70104 14.4201C1.8259 14.3661 1.97802 14.369 2.09743 14.3076C2.47896 14.1109 2.86793 13.9204 3.22122 13.6803C3.4873 13.4991 3.69689 13.239 3.94315 13.0271C4.13342 12.8635 4.3455 12.7247 4.54072 12.5669C4.78599 12.3681 4.92473 12.5308 5.10014 12.7709C5.43311 12.4456 5.7532 12.1358 6.06784 11.8216C6.10351 11.7861 6.10005 11.7135 6.13523 11.6765C6.25662 11.5469 6.36712 11.3891 6.51824 11.3097C6.72933 11.1987 6.89432 11.0516 6.96617 10.8451C7.06626 10.5577 7.27784 10.5377 7.53153 10.4997C7.7986 10.4603 8.05329 10.3439 8.3159 10.2698C8.53887 10.207 8.76532 10.1563 9.01207 10.095C9.02347 10.2304 9.0309 10.3215 9.04032 10.433C9.20185 10.3502 9.26428 10.2133 9.2727 10.038C9.28113 9.86947 9.31086 9.70094 9.30293 9.53339C9.29252 9.30982 9.25486 9.10526 9.02941 8.95524C8.7227 8.75164 8.56316 8.45502 8.62658 8.07121C8.66424 7.84131 8.66721 7.60411 8.72568 7.38055C8.81982 7.02012 9.10869 6.82383 9.47932 6.81506C9.61658 6.81165 9.7568 6.79947 9.8886 6.76489C10.2771 6.66212 10.5218 6.9305 10.8038 7.09805C10.8419 7.12094 10.8444 7.213 10.8504 7.27388C10.8855 7.61872 10.9554 7.96552 10.9381 8.30792C10.9207 8.65131 10.8127 8.99031 10.7493 9.33174C10.722 9.47884 10.7057 9.62837 10.6863 9.76085C10.9232 9.55092 11.1581 9.34635 11.3885 9.13643C11.4336 9.09503 11.4856 9.03658 11.491 8.98154C11.5535 8.33423 11.8592 7.80478 12.2843 7.32356C12.375 7.22128 12.4315 7.07174 12.4577 6.93537C12.5514 6.45512 12.6906 5.98071 12.593 5.47757C12.5593 5.3032 12.6223 5.11178 12.6322 4.92767C12.6356 4.86825 12.6114 4.80688 12.5985 4.74648C12.5886 4.69924 12.5638 4.6515 12.5677 4.60572C12.6029 4.18976 12.6133 3.76893 12.6906 3.36028C12.7491 3.05246 12.9523 2.79675 13.1807 2.57123C13.2144 2.53763 13.2223 2.47869 13.2575 2.39589C13.0647 2.43729 12.9131 2.48405 12.7585 2.49817C12.6535 2.50791 12.5261 2.50061 12.4404 2.44947C12.1263 2.26097 12.1669 2.26682 12.3126 1.92002C12.4672 1.55083 12.7303 1.40617 13.1019 1.35649C13.3397 1.32483 13.5716 1.25371 13.809 1.21426C13.8927 1.20014 13.9854 1.24008 14.0711 1.22985C14.1251 1.22352 14.1994 1.1826 14.2207 1.1373C14.3768 0.805124 14.521 0.467585 14.6721 0.132969C14.6959 0.0808531 14.7365 0.0360431 14.8044 0C14.5621 0.688715 14.1142 1.33164 14.4145 2.10998C14.2653 2.14554 14.1538 2.14407 14.0835 2.19619C14.0106 2.24977 13.9328 2.35838 13.9378 2.43826C13.9457 2.56539 14.024 2.68764 14.0661 2.81379C14.0978 2.90926 14.1186 3.00813 14.1092 3.11578C14.1613 3.22829 14.2896 3.30866 14.1489 3.4728C14.1063 3.52248 14.1613 3.65593 14.1781 3.74994C14.2064 3.9058 14.2505 4.05971 14.2678 4.21655C14.2846 4.36949 14.2589 4.49613 14.4457 4.61351C14.5626 4.68706 14.7142 4.89455 14.6305 5.13273C14.5364 5.40061 14.4997 5.6875 14.4145 5.95928C14.3624 6.12537 14.185 6.22912 14.2123 6.45025C14.2475 6.73323 14.2262 7.02353 14.2197 7.31041C14.2068 7.88417 14.2034 8.45892 14.1632 9.03073C14.1474 9.25479 14.0453 9.47348 13.9665 9.74916C14.0775 9.73942 14.1841 9.75988 14.2544 9.71945C14.63 9.50368 15.1661 9.77741 15.3559 10.1154C15.4684 10.3161 15.5467 10.5061 15.4198 10.7384C15.3891 10.7944 15.5155 10.9196 15.5006 11.0009C15.4585 11.2372 15.453 11.5401 15.3019 11.6833C15.0789 11.8947 15.069 12.1324 15.0135 12.3784C15.0011 12.4329 14.9882 12.487 14.9788 12.542C14.9436 12.751 14.9218 12.9482 15.0948 13.128C15.3529 13.3963 15.566 13.7105 15.844 13.955C16.1254 14.2029 16.1403 14.6549 15.948 14.9252C15.5828 15.4386 15.5358 16.0426 15.3673 16.6124C15.3524 16.6636 15.3465 16.7493 15.3762 16.7766C15.5982 16.9787 15.5695 17.2554 15.6274 17.5086C15.6805 17.7405 15.7548 17.9699 15.8425 18.1915C16.0174 18.6333 15.9376 19.0327 15.7092 19.3464C15.8187 19.5495 15.9099 19.7131 15.9946 19.8802C16.0154 19.9216 15.9966 19.9932 16.0253 20.018C16.4277 20.3668 16.2686 20.7915 16.2062 21.207C16.1859 21.3419 16.2161 21.4841 16.1977 21.62C16.1829 21.731 16.1304 21.8377 16.0942 21.9458C16.0818 21.9829 16.0669 22.0189 16.0555 22.0559C16.0169 22.1826 15.9797 22.3097 15.9029 22.4305C15.9594 22.5922 16.1328 22.7441 15.9872 22.9745C15.9678 23.0047 16.0659 23.1055 16.1081 23.1747C16.2002 23.3257 16.2954 23.4752 16.3821 23.6291C16.4995 23.8386 16.4723 24.0276 16.2884 24.1932C15.9069 24.5366 15.5278 24.8829 15.1384 25.2365C15.1889 25.4561 15.2543 25.6743 15.4941 25.7937C15.5328 25.8132 15.565 25.8624 15.5814 25.9052C15.8103 26.5131 16.3499 26.7342 16.9137 26.8078C17.6045 26.8974 18.3105 26.8725 19.0107 26.8876C19.4393 26.8969 19.8684 26.8871 20.2975 26.8857C20.3634 26.8857 20.4298 26.8891 20.4957 26.8847C20.9575 26.8531 21.0749 26.9607 21.1879 27.4137C21.3643 28.1204 21.561 28.8228 21.7636 29.5227C21.8122 29.6902 21.9197 29.8412 22 30C14.6667 30 7.33333 30 0 30C0.000495495 29.0575 0.000495979 28.1165 0.000495979 27.176ZM9.1523 24.7431C9.11216 24.5448 9.10423 24.3627 8.88523 24.2833C8.7896 24.2487 8.62658 23.4777 8.68703 23.4041C8.72072 23.3637 8.7782 23.3389 8.82973 23.3174C9.07054 23.2171 9.19491 23.0193 9.29748 22.7982C9.39162 22.5946 9.48428 22.3891 9.59626 22.1947C9.66513 22.0749 9.67009 22.0009 9.57942 21.8781C9.34554 21.5625 9.46793 20.9586 9.78405 20.7038C10.01 20.5212 10.2275 20.3278 10.4133 20.1695C10.1805 20.0005 9.96541 19.8544 9.76225 19.6931C9.68198 19.6298 9.62897 19.5329 9.56108 19.454C9.43176 19.303 9.33365 19.3381 9.26131 19.5061C9.18897 19.6746 9.12604 19.8471 9.04478 20.0112C8.80744 20.4905 8.56811 20.9693 8.32036 21.4432C8.09491 21.8742 7.85707 22.299 7.62468 22.7266C7.59446 22.7826 7.55185 22.8357 7.53698 22.8956C7.39626 23.4674 7.23176 24.0256 7.00432 24.5765C6.71496 25.2784 6.53955 26.027 6.33293 26.76C6.30568 26.8565 6.35374 27.0148 6.42608 27.0839C6.48405 27.139 6.6555 27.1424 6.73725 27.0985C7.1495 26.8774 7.56225 26.6524 7.94775 26.3908C8.18261 26.2316 8.38379 26.1984 8.6568 26.2832C9.16865 26.4415 9.69437 26.5594 10.2161 26.6865C10.3777 26.7259 10.5387 26.7108 10.6086 26.5267C10.669 26.3674 10.73 26.2057 10.7622 26.0396C10.8092 25.7942 10.7423 25.7352 10.4872 25.7489C10.3702 25.7552 10.2236 25.7961 10.1413 25.744C9.97878 25.6407 9.85689 25.4781 9.70824 25.3504C9.64383 25.2954 9.5596 25.2438 9.47784 25.2301C9.29649 25.1995 9.10968 25.2019 8.92784 25.1732C8.87135 25.1644 8.7782 25.0938 8.78167 25.0587C8.7891 24.9837 8.83221 24.895 8.89068 24.8468C8.95509 24.7947 9.0532 24.7801 9.1523 24.7431ZM12.1986 12.5405C12.1694 12.5401 12.1396 12.5396 12.1104 12.5386C12.0708 12.8138 12.0336 13.089 11.9905 13.3637C11.9231 13.7938 11.9186 14.2321 11.71 14.6388C11.5961 14.8609 11.5579 15.1225 11.5009 15.3699C11.4891 15.4206 11.5356 15.5287 11.5748 15.5389C11.8988 15.6247 12.2273 15.6933 12.6193 15.782C12.5113 15.3465 12.4305 14.9944 12.3359 14.6461C12.2432 14.3042 12.3636 13.956 12.2229 13.5951C12.1035 13.2858 12.1986 12.8956 12.1986 12.5405ZM12.818 9.52413C12.3185 10.2572 12.0425 11.2357 12.2363 11.637C12.2774 11.4724 12.3141 11.3243 12.3601 11.1393C12.3874 11.2152 12.3988 11.2459 12.4171 11.2971C12.5554 10.6858 12.6867 10.1057 12.818 9.52413Z" fill="#4D4D4D"/>
<path d="M27.1475 10.6855C27.0758 11.444 26.7959 12.0365 26.3076 12.4629C25.8193 12.8861 25.1699 13.0977 24.3594 13.0977C23.793 13.0977 23.2933 12.9642 22.8604 12.6973C22.4307 12.4271 22.0986 12.0446 21.8643 11.5498C21.6299 11.055 21.5078 10.4805 21.498 9.82617V9.16211C21.498 8.49154 21.6169 7.90072 21.8545 7.38965C22.0921 6.87858 22.4323 6.4847 22.875 6.20801C23.321 5.93132 23.8353 5.79297 24.418 5.79297C25.2025 5.79297 25.834 6.00618 26.3125 6.43262C26.791 6.85905 27.0693 7.46126 27.1475 8.23926H25.917C25.8584 7.72819 25.7087 7.36035 25.4678 7.13574C25.2301 6.90788 24.8802 6.79395 24.418 6.79395C23.8809 6.79395 23.4674 6.99089 23.1777 7.38477C22.8913 7.77539 22.7448 8.34993 22.7383 9.1084V9.73828C22.7383 10.5065 22.875 11.0924 23.1484 11.4961C23.4251 11.8997 23.8288 12.1016 24.3594 12.1016C24.8444 12.1016 25.209 11.9925 25.4531 11.7744C25.6973 11.5563 25.8519 11.1934 25.917 10.6855H27.1475ZM34.7939 14.748H33.6221V13H28.9395V14.748H27.748L27.709 12.0137H28.2803C28.5635 11.7402 28.7897 11.3431 28.959 10.8223C29.1283 10.2982 29.2373 9.70573 29.2861 9.04492L29.4717 5.89062H33.9541V12.0137H34.8574L34.7939 14.748ZM29.6768 12.0137H32.7236V6.88672H30.6484L30.5312 8.88867C30.4434 10.2266 30.1585 11.2682 29.6768 12.0137ZM39.9404 9.82617H37.0205V12.0137H40.4336V13H35.7852V5.89062H40.3994V6.88672H37.0205V8.84961H39.9404V9.82617ZM47.0303 5.89062V13H45.7998V6.88672H43.6221L43.4951 9.63574C43.4463 10.4951 43.3405 11.1624 43.1777 11.6377C43.0182 12.1097 42.7855 12.4548 42.4795 12.6729C42.1735 12.891 41.7633 13 41.249 13H40.9365V12.0137L41.1318 11.999C41.415 11.973 41.6331 11.8737 41.7861 11.7012C41.9424 11.5286 42.0596 11.2682 42.1377 10.9199C42.2191 10.5684 42.276 10.0524 42.3086 9.37207L42.4453 5.89062H47.0303ZM52.5869 11.3447H49.833L49.2568 13H47.9727L50.6582 5.89062H51.7666L54.457 13H53.168L52.5869 11.3447ZM50.1797 10.3486H52.2402L51.21 7.39941L50.1797 10.3486ZM60.9121 13H59.6816V9.84082H56.5029V13H55.2676V5.89062H56.5029V8.84961H59.6816V5.89062H60.9121V13ZM68.0508 9.63086C68.0508 10.3275 67.9303 10.9395 67.6895 11.4668C67.4486 11.9909 67.1035 12.3945 66.6543 12.6777C66.2083 12.9577 65.694 13.0977 65.1113 13.0977C64.5352 13.0977 64.0208 12.9577 63.5684 12.6777C63.1191 12.3945 62.7708 11.9925 62.5234 11.4717C62.2793 10.9508 62.1556 10.3503 62.1523 9.66992V9.26953C62.1523 8.57617 62.2744 7.96419 62.5186 7.43359C62.766 6.90299 63.1126 6.49772 63.5586 6.21777C64.0078 5.93457 64.5221 5.79297 65.1016 5.79297C65.681 5.79297 66.1937 5.93294 66.6396 6.21289C67.0889 6.48958 67.4355 6.88997 67.6797 7.41406C67.9238 7.9349 68.0475 8.54199 68.0508 9.23535V9.63086ZM66.8154 9.25977C66.8154 8.47201 66.6657 7.86816 66.3662 7.44824C66.07 7.02832 65.6484 6.81836 65.1016 6.81836C64.5677 6.81836 64.1494 7.02832 63.8467 7.44824C63.5472 7.86491 63.3942 8.45573 63.3877 9.2207V9.63086C63.3877 10.4121 63.5391 11.016 63.8418 11.4424C64.1478 11.8688 64.571 12.082 65.1113 12.082C65.6582 12.082 66.0781 11.8737 66.3711 11.457C66.6673 11.0404 66.8154 10.4316 66.8154 9.63086V9.25977ZM21.7227 24V16.8906H24.1592C24.9632 16.8906 25.5752 17.0518 25.9951 17.374C26.415 17.6963 26.625 18.1764 26.625 18.8145C26.625 19.14 26.5371 19.4329 26.3613 19.6934C26.1855 19.9538 25.9284 20.1556 25.5898 20.2988C25.974 20.403 26.2702 20.5999 26.4785 20.8896C26.6901 21.1761 26.7959 21.5212 26.7959 21.9248C26.7959 22.5921 26.5811 23.1048 26.1514 23.4629C25.7249 23.821 25.113 24 24.3154 24H21.7227ZM22.958 20.792V23.0137H24.3301C24.7174 23.0137 25.0202 22.9176 25.2383 22.7256C25.4564 22.5335 25.5654 22.2666 25.5654 21.9248C25.5654 21.1859 25.1878 20.8083 24.4326 20.792H22.958ZM22.958 19.8838H24.1689C24.5531 19.8838 24.8525 19.7975 25.0674 19.625C25.2855 19.4492 25.3945 19.2018 25.3945 18.8828C25.3945 18.5312 25.2936 18.2773 25.0918 18.1211C24.8932 17.9648 24.5824 17.8867 24.1592 17.8867H22.958V19.8838ZM32.123 16.8906L34.1738 22.3398L36.2197 16.8906H37.8164V24H36.5859V21.6562L36.708 18.5215L34.6084 24H33.7246L31.6299 18.5264L31.752 21.6562V24H30.5215V16.8906H32.123ZM44.9551 20.6309C44.9551 21.3275 44.8346 21.9395 44.5938 22.4668C44.3529 22.9909 44.0078 23.3945 43.5586 23.6777C43.1126 23.9577 42.5983 24.0977 42.0156 24.0977C41.4395 24.0977 40.9251 23.9577 40.4727 23.6777C40.0234 23.3945 39.6751 22.9925 39.4277 22.4717C39.1836 21.9508 39.0599 21.3503 39.0566 20.6699V20.2695C39.0566 19.5762 39.1787 18.9642 39.4229 18.4336C39.6702 17.903 40.0169 17.4977 40.4629 17.2178C40.9121 16.9346 41.4264 16.793 42.0059 16.793C42.5853 16.793 43.098 16.9329 43.5439 17.2129C43.9932 17.4896 44.3398 17.89 44.584 18.4141C44.8281 18.9349 44.9518 19.542 44.9551 20.2354V20.6309ZM43.7197 20.2598C43.7197 19.472 43.57 18.8682 43.2705 18.4482C42.9743 18.0283 42.5527 17.8184 42.0059 17.8184C41.472 17.8184 41.0537 18.0283 40.751 18.4482C40.4515 18.8649 40.2985 19.4557 40.292 20.2207V20.6309C40.292 21.4121 40.4434 22.016 40.7461 22.4424C41.0521 22.8688 41.4753 23.082 42.0156 23.082C42.5625 23.082 42.9824 22.8737 43.2754 22.457C43.5716 22.0404 43.7197 21.4316 43.7197 20.6309V20.2598ZM51.6104 21.6855C51.5387 22.444 51.2588 23.0365 50.7705 23.4629C50.2822 23.8861 49.6328 24.0977 48.8223 24.0977C48.2559 24.0977 47.7562 23.9642 47.3232 23.6973C46.8936 23.4271 46.5615 23.0446 46.3271 22.5498C46.0928 22.055 45.9707 21.4805 45.9609 20.8262V20.1621C45.9609 19.4915 46.0798 18.9007 46.3174 18.3896C46.555 17.8786 46.8952 17.4847 47.3379 17.208C47.7839 16.9313 48.2982 16.793 48.8809 16.793C49.6654 16.793 50.2969 17.0062 50.7754 17.4326C51.2539 17.859 51.5322 18.4613 51.6104 19.2393H50.3799C50.3213 18.7282 50.1715 18.3604 49.9307 18.1357C49.693 17.9079 49.3431 17.7939 48.8809 17.7939C48.3438 17.7939 47.9303 17.9909 47.6406 18.3848C47.3542 18.7754 47.2077 19.3499 47.2012 20.1084V20.7383C47.2012 21.5065 47.3379 22.0924 47.6113 22.4961C47.888 22.8997 48.2917 23.1016 48.8223 23.1016C49.3073 23.1016 49.6719 22.9925 49.916 22.7744C50.1602 22.5563 50.3148 22.1934 50.3799 21.6855H51.6104ZM54.8232 20.9531H53.9834V24H52.7529V16.8906H53.9834V19.8789H54.6621L56.752 16.8906H58.2656L55.8242 20.2939L58.4805 24H56.9961L54.8232 20.9531ZM59.1641 24V16.8906H61.6006C62.4046 16.8906 63.0166 17.0518 63.4365 17.374C63.8564 17.6963 64.0664 18.1764 64.0664 18.8145C64.0664 19.14 63.9785 19.4329 63.8027 19.6934C63.627 19.9538 63.3698 20.1556 63.0312 20.2988C63.4154 20.403 63.7116 20.5999 63.9199 20.8896C64.1315 21.1761 64.2373 21.5212 64.2373 21.9248C64.2373 22.5921 64.0225 23.1048 63.5928 23.4629C63.1663 23.821 62.5544 24 61.7568 24H59.1641ZM60.3994 20.792V23.0137H61.7715C62.1589 23.0137 62.4616 22.9176 62.6797 22.7256C62.8978 22.5335 63.0068 22.2666 63.0068 21.9248C63.0068 21.1859 62.6292 20.8083 61.874 20.792H60.3994ZM60.3994 19.8838H61.6104C61.9945 19.8838 62.2939 19.7975 62.5088 19.625C62.7269 19.4492 62.8359 19.2018 62.8359 18.8828C62.8359 18.5312 62.735 18.2773 62.5332 18.1211C62.3346 17.9648 62.0238 17.8867 61.6006 17.8867H60.3994V19.8838ZM69.6279 20.8262H66.708V23.0137H70.1211V24H65.4727V16.8906H70.0869V17.8867H66.708V19.8496H69.6279V20.8262Z" fill="#4D4D4D"/>
</svg>
