<svg width="89" height="50" viewBox="0 0 89 50" fill="none" xmlns="http://www.w3.org/2000/svg">
<g clip-path="url(#clip0)">
<path d="M47.4913 27.826L46.8351 20.5402L41.3471 20.1081C40.938 18.9276 40.401 17.7737 39.7359 16.6625L42.8889 12.1929L37.705 7.0352L33.2715 10.1945C32.1565 9.5296 30.981 8.98556 29.7628 8.56597L29.3146 3.17537L22.0251 2.5531L20.6753 7.77836C19.3967 7.9846 18.1322 8.32418 16.8981 8.7971L13.119 4.99061L12.9483 5.1115L7.13481 9.19891L9.45381 14.0579C8.59308 15.0624 7.84616 16.1434 7.22551 17.2777L1.8744 16.7888L0 23.8577L4.93319 26.105C4.92074 27.3993 5.04167 28.6901 5.29954 29.9719L0.851838 33.053L3.96043 39.674L9.23862 38.2143C10.0656 39.2099 10.9796 40.1078 11.9631 40.8918L10.5244 46.1686L17.1613 49.2444L20.2947 44.6876C21.5325 44.9117 22.7951 45.0183 24.056 44.9917L26.3696 49.9982L33.428 48.0906L33.1577 45.2708L32.8927 42.5613C33.4191 42.2608 33.9384 41.9337 34.4417 41.5834C34.9716 41.2065 35.4767 40.8118 35.9586 40.3958L40.9647 42.7568L45.1474 36.7564L41.1888 32.8664C41.6334 31.6912 41.9517 30.4698 42.1527 29.2323L47.4913 27.826ZM30.371 35.807C29.8801 36.1519 29.3644 36.4382 28.8416 36.6995C23.7715 39.2259 17.4831 37.7538 14.1202 32.9784C10.4177 27.714 11.6785 20.4424 16.9478 16.7301C17.4084 16.4065 17.8868 16.1363 18.3759 15.8874C23.4638 13.2934 29.8161 14.746 33.1968 19.557C36.9047 24.8249 35.6403 32.0965 30.371 35.807Z" fill="#0085FF"/>
<path d="M88.3333 20.677L87.7963 14.7157L83.3094 14.3637C82.9733 13.3965 82.5305 12.4542 81.9881 11.5439L84.5703 7.88678L80.3271 3.66604L76.6993 6.25111C75.787 5.70707 74.8266 5.2626 73.8307 4.91946L73.4626 0.508481L67.498 0L66.3954 4.27586C65.3497 4.44476 64.3147 4.72211 63.3064 5.11147L60.212 1.99303L60.0733 2.09437L55.3179 5.43683L57.2137 9.414C56.5094 10.2354 55.8995 11.119 55.3908 12.0471L51.0143 11.647L49.4796 17.4288L53.5182 19.2671C53.5076 20.325 53.6071 21.3811 53.8188 22.4283L50.1785 24.9511L52.7215 30.3666L57.0412 29.1719C57.717 29.9879 58.4656 30.7222 59.2695 31.364L58.0922 35.6808L63.5215 38.1983L66.0842 34.47C67.0978 34.6531 68.1293 34.7385 69.1607 34.7207L71.0529 38.817L76.8291 37.2542L76.6068 34.9483L76.3916 32.7312C76.822 32.4841 77.2452 32.2192 77.6596 31.9312C78.0935 31.6236 78.5061 31.3018 78.8991 30.9604L82.9964 32.893L86.4162 27.9824L83.1796 24.7982C83.5442 23.8381 83.8056 22.8372 83.9674 21.8273L88.3333 20.677ZM74.3269 27.2073C73.925 27.4882 73.5035 27.7229 73.0767 27.9362C68.9296 30.0039 63.783 28.7967 61.0318 24.8924C58.0033 20.5846 59.0347 14.6357 63.3473 11.599C63.7243 11.3359 64.1155 11.1137 64.5139 10.9092C68.677 8.7864 73.8734 9.9776 76.6406 13.9121C79.6727 18.2217 78.6377 24.1706 74.3269 27.2073Z" fill="#0085FF"/>
</g>
<defs>
<clipPath id="clip0">
<rect width="88.3333" height="50" fill="white"/>
</clipPath>
</defs>
</svg>
