<svg width="23" height="22" viewBox="0 0 23 22" fill="none" xmlns="http://www.w3.org/2000/svg">
<path d="M11.9075 2.12573C14.7978 2.12573 15.1402 2.13677 16.2817 2.18885C17.3371 2.23702 17.9102 2.41332 18.2917 2.56156C18.7619 2.73509 19.1872 3.01179 19.5363 3.37131C19.8959 3.72047 20.1726 4.14577 20.3461 4.61594C20.4943 4.99738 20.6707 5.57054 20.7188 6.62593C20.7709 7.7674 20.7819 8.10973 20.7819 11.0002C20.7819 13.8906 20.7709 14.2328 20.7188 15.3744C20.6706 16.4298 20.4943 17.0029 20.3461 17.3844C20.166 17.8512 19.8902 18.2752 19.5364 18.629C19.1825 18.9828 18.7586 19.2587 18.2917 19.4387C17.9103 19.587 17.3371 19.7633 16.2817 19.8115C15.1405 19.8635 14.7981 19.8746 11.9075 19.8746C9.01686 19.8746 8.67465 19.8635 7.53328 19.8115C6.47788 19.7633 5.90476 19.5869 5.52328 19.4387C5.05311 19.2652 4.62781 18.9885 4.27865 18.629C3.91913 18.2798 3.64244 17.8545 3.4689 17.3844C3.32066 17.0029 3.14432 16.4298 3.09619 15.3744C3.04412 14.233 3.03307 13.8906 3.03307 11.0002C3.03307 8.10973 3.04412 7.76749 3.09619 6.62593C3.14436 5.57054 3.32066 4.99742 3.4689 4.61594C3.64245 4.14575 3.91918 3.72043 4.27874 3.37127C4.6279 3.01175 5.0532 2.73505 5.52337 2.56152C5.9048 2.41328 6.47796 2.23693 7.53336 2.18881C8.67483 2.13673 9.01716 2.12569 11.9076 2.12569L11.9075 2.12573ZM11.9076 0.175293C8.96775 0.175293 8.59899 0.187754 7.44459 0.240434C6.29238 0.293027 5.50554 0.475988 4.81701 0.743598C4.09473 1.0154 3.44043 1.44149 2.89974 1.99214C2.34896 2.5328 1.92276 3.1871 1.65085 3.90941C1.38346 4.59798 1.2005 5.38482 1.14812 6.53703C1.09522 7.69143 1.08276 8.06019 1.08276 11C1.08276 13.9399 1.09522 14.3086 1.14812 15.463C1.20071 16.6152 1.38367 17.4021 1.65128 18.0906C1.92309 18.8129 2.34917 19.4672 2.89983 20.0079C3.44051 20.5585 4.09481 20.9846 4.81709 21.2564C5.50567 21.524 6.29251 21.707 7.44467 21.7596C8.59925 21.8123 8.96787 21.8247 11.9077 21.8247C14.8475 21.8247 15.2163 21.8123 16.3707 21.7596C17.5229 21.707 18.3097 21.524 18.9982 21.2564C19.7173 20.9783 20.3704 20.553 20.9155 20.0079C21.4607 19.4627 21.8859 18.8097 22.1641 18.0906C22.4317 17.402 22.6146 16.6152 22.6672 15.463C22.7199 14.3084 22.7324 13.9398 22.7324 11C22.7324 8.06023 22.7199 7.69143 22.6672 6.53703C22.6146 5.38482 22.4317 4.59798 22.1641 3.90945C21.8922 3.18717 21.4662 2.53287 20.9155 1.99218C20.3748 1.44142 19.7205 1.01524 18.9981 0.743383C18.3095 0.475988 17.5227 0.293027 16.3705 0.240648C15.2161 0.187754 14.8473 0.175293 11.9075 0.175293H11.9076Z" fill="#4D4D4D"/>
<path d="M11.9075 5.44128C10.8081 5.44128 9.73343 5.76729 8.81931 6.37809C7.90519 6.98888 7.19273 7.85702 6.77201 8.87273C6.35129 9.88844 6.24121 11.0061 6.45569 12.0844C6.67017 13.1626 7.19958 14.1531 7.97697 14.9305C8.75436 15.7079 9.74482 16.2373 10.8231 16.4518C11.9014 16.6663 13.019 16.5562 14.0347 16.1355C15.0504 15.7147 15.9186 15.0023 16.5294 14.0882C17.1402 13.174 17.4662 12.0993 17.4662 10.9999C17.4662 9.52569 16.8805 8.11183 15.8381 7.06938C14.7956 6.02693 13.3818 5.44128 11.9075 5.44128ZM11.9075 14.6082C11.1939 14.6081 10.4963 14.3965 9.90293 14C9.30956 13.6036 8.8471 13.04 8.57401 12.3807C8.30092 11.7214 8.22947 10.9959 8.3687 10.296C8.50792 9.59606 8.85158 8.95314 9.3562 8.44853C9.86082 7.94391 10.5037 7.60027 11.2037 7.46105C11.9036 7.32183 12.6291 7.39329 13.2884 7.66638C13.9477 7.93948 14.5112 8.40196 14.9077 8.99532C15.3042 9.58869 15.5158 10.2863 15.5158 10.9999C15.5158 11.9569 15.1356 12.8747 14.4589 13.5513C13.7823 14.228 12.8645 14.6082 11.9075 14.6082Z" fill="#4D4D4D"/>
<path d="M17.6857 6.52063C18.4031 6.52063 18.9846 5.93907 18.9846 5.22168C18.9846 4.50429 18.4031 3.92273 17.6857 3.92273C16.9683 3.92273 16.3867 4.50429 16.3867 5.22168C16.3867 5.93907 16.9683 6.52063 17.6857 6.52063Z" fill="#4D4D4D"/>
</svg>
