<svg width="236" height="160" viewBox="0 0 236 160" fill="none" xmlns="http://www.w3.org/2000/svg">
<path d="M85.9536 47.1948C85.9536 48.8045 85.6691 50.2158 85.1001 51.4287C84.5311 52.6416 83.715 53.5775 82.6519 54.2363C81.5962 54.8952 80.3833 55.2246 79.0132 55.2246C77.658 55.2246 76.4489 54.8989 75.3857 54.2476C74.3226 53.5962 73.499 52.6678 72.915 51.4624C72.3311 50.2495 72.0353 48.8569 72.0278 47.2847V46.4761C72.0278 44.8664 72.3161 43.4513 72.8926 42.231C73.4766 41.0031 74.2964 40.0635 75.3521 39.4121C76.4152 38.7533 77.6281 38.4238 78.9907 38.4238C80.3534 38.4238 81.5625 38.7533 82.6182 39.4121C83.6813 40.0635 84.5011 41.0031 85.0776 42.231C85.6616 43.4513 85.9536 44.8626 85.9536 46.4648V47.1948ZM82.5396 46.4536C82.5396 44.7391 82.2326 43.4364 81.6187 42.5454C81.0047 41.6545 80.1287 41.209 78.9907 41.209C77.8602 41.209 76.988 41.6507 76.374 42.5342C75.7601 43.4102 75.4494 44.6979 75.4419 46.3975V47.1948C75.4419 48.8644 75.7489 50.1597 76.3628 51.0806C76.9767 52.0015 77.8602 52.4619 79.0132 52.4619C80.1437 52.4619 81.0122 52.0202 81.6187 51.1367C82.2251 50.2458 82.5321 48.9505 82.5396 47.251V46.4536ZM88.2559 38.6484H91.625V52.2935H98.1724V38.6484H101.553V52.2935H103.788L103.563 58.9419H100.418V55H88.2559V38.6484ZM115.692 47.9136H109.223V52.2935H116.815V55H105.854V38.6484H116.792V41.3774H109.223V45.2744H115.692V47.9136ZM132.1 55H128.73V47.9922H122.161V55H118.792V38.6484H122.161V45.2744H128.73V38.6484H132.1V55ZM140.388 48.3179H138.445V55H135.076V38.6484H138.445V45.1958H139.983L143.981 38.6484H148.092L143.049 46.3862L148.62 55H144.599L140.388 48.3179ZM159.154 51.6309H153.247L152.124 55H148.541L154.628 38.6484H157.75L163.871 55H160.288L159.154 51.6309ZM154.156 48.9019H158.244L156.189 42.7812L154.156 48.9019Z" fill="#373737"/>
<path d="M176.647 160H57V0H176.647V160ZM63.0838 153.924H170.563V6.07595H63.0838V153.924Z" fill="#373737"/>
<path d="M161.228 88.476H72V94.5519H161.228V88.476Z" fill="#373737"/>
<path d="M161.228 113.205H72V119.281H161.228V113.205Z" fill="#373737"/>
<path d="M161.228 100.84H72V106.916H161.228V100.84Z" fill="#373737"/>
<path d="M132.838 125.57H72V131.646H132.838V125.57Z" fill="#373737"/>
<path d="M43 77H0V83H43V77Z" fill="#373737"/>
<path d="M58.1548 80.2364L38.6686 91.4709V69L58.1548 80.2364Z" fill="#373737"/>
<path d="M220 77H177V83H220V77Z" fill="#373737"/>
<path d="M235.155 80.2364L215.669 91.4709V69L235.155 80.2364Z" fill="#373737"/>
</svg>
