<svg width="235" height="160" viewBox="0 0 235 160" fill="none" xmlns="http://www.w3.org/2000/svg">
<path d="M78.6963 32.3359H80.9009V43H78.6963V35.9175L74.4263 43H72.229V32.3359H74.4263V39.4331L78.6963 32.3359ZM91.1768 39.4478C91.0938 40.5952 90.6689 41.4985 89.9023 42.1577C89.1406 42.8169 88.1348 43.1465 86.8848 43.1465C85.5176 43.1465 84.4409 42.6875 83.6548 41.7695C82.8735 40.8467 82.4829 39.582 82.4829 37.9756V37.3237C82.4829 36.2983 82.6636 35.395 83.0249 34.6138C83.3862 33.8325 83.9014 33.2344 84.5703 32.8193C85.2441 32.3994 86.0254 32.1895 86.9141 32.1895C88.1445 32.1895 89.1357 32.519 89.8877 33.1782C90.6396 33.8374 91.0742 34.7627 91.1914 35.9541H88.9941C88.9404 35.2656 88.7476 34.7676 88.4155 34.46C88.0884 34.1475 87.5879 33.9912 86.9141 33.9912C86.1816 33.9912 85.6323 34.2549 85.2661 34.7822C84.9048 35.3047 84.7192 36.1177 84.7095 37.2212V38.0269C84.7095 39.1792 84.8828 40.0215 85.2295 40.5537C85.5811 41.0859 86.1328 41.3521 86.8848 41.3521C87.5635 41.3521 88.0688 41.1982 88.4009 40.8906C88.7378 40.5781 88.9307 40.0972 88.9795 39.4478H91.1768ZM96.4355 36.0127L98.4351 32.3359H100.962L97.8564 37.624L101.042 43H98.4863L96.4355 39.2646L94.3848 43H91.8286L95.0146 37.624L91.9092 32.3359H94.436L96.4355 36.0127ZM110.725 37.9097C110.725 38.9595 110.54 39.8799 110.168 40.6709C109.797 41.4619 109.265 42.0723 108.572 42.502C107.883 42.9316 107.092 43.1465 106.199 43.1465C105.315 43.1465 104.526 42.9341 103.833 42.5093C103.14 42.0845 102.603 41.479 102.222 40.6929C101.841 39.9019 101.648 38.9937 101.643 37.9683V37.4409C101.643 36.3911 101.831 35.4683 102.207 34.6724C102.588 33.8716 103.123 33.2588 103.811 32.834C104.504 32.4043 105.295 32.1895 106.184 32.1895C107.073 32.1895 107.861 32.4043 108.55 32.834C109.243 33.2588 109.778 33.8716 110.154 34.6724C110.535 35.4683 110.725 36.3887 110.725 37.4336V37.9097ZM108.499 37.4263C108.499 36.3081 108.298 35.4585 107.898 34.8774C107.498 34.2964 106.926 34.0059 106.184 34.0059C105.447 34.0059 104.878 34.2939 104.478 34.8701C104.077 35.4414 103.875 36.2812 103.87 37.3896V37.9097C103.87 38.9985 104.07 39.8433 104.47 40.4438C104.871 41.0444 105.447 41.3447 106.199 41.3447C106.936 41.3447 107.502 41.0566 107.898 40.4805C108.293 39.8994 108.494 39.0547 108.499 37.9463V37.4263ZM121.96 45.6221H119.932V43H113.501V45.6147H111.421L111.304 41.2349H112.109C112.544 40.8735 112.878 40.3438 113.113 39.6455C113.352 38.9424 113.513 38.0732 113.596 37.0381L113.904 32.3359H120.891V41.2349H122.136L121.96 45.6221ZM114.629 41.2349H118.694V34.1157H115.991L115.808 36.9209C115.662 38.8008 115.269 40.2388 114.629 41.2349ZM131.973 43H129.775V38.4297H125.491V43H123.293V32.3359H125.491V36.6572H129.775V32.3359H131.973V43ZM140.293 32.3359H142.498V43H140.293V35.9175L136.023 43H133.826V32.3359H136.023V39.4331L140.293 32.3359ZM147.881 38.6421H146.614V43H144.417V32.3359H146.614V36.606H147.617L150.225 32.3359H152.905L149.617 37.3823L153.25 43H150.627L147.881 38.6421ZM160.493 32.3359H162.698V43H160.493V35.9175L156.223 43H154.026V32.3359H156.223V39.4331L160.493 32.3359ZM80.9961 50.3359H83.2007V61H80.9961V53.9175L76.7261 61H74.5288V50.3359H76.7261V57.4331L80.9961 50.3359ZM98.728 63.6221H96.6992V61H90.2686V63.6147H88.1885L88.0713 59.2349H88.877C89.3115 58.8735 89.646 58.3438 89.8804 57.6455C90.1196 56.9424 90.2808 56.0732 90.3638 55.0381L90.6714 50.3359H97.6587V59.2349H98.9038L98.728 63.6221ZM91.3965 59.2349H95.4614V52.1157H92.7588L92.5757 54.9209C92.4292 56.8008 92.0361 58.2388 91.3965 59.2349ZM108.645 55.9097C108.645 56.9595 108.459 57.8799 108.088 58.6709C107.717 59.4619 107.185 60.0723 106.492 60.502C105.803 60.9316 105.012 61.1465 104.119 61.1465C103.235 61.1465 102.446 60.9341 101.753 60.5093C101.06 60.0845 100.522 59.479 100.142 58.6929C99.7607 57.9019 99.5679 56.9937 99.563 55.9683V55.4409C99.563 54.3911 99.751 53.4683 100.127 52.6724C100.508 51.8716 101.042 51.2588 101.731 50.834C102.424 50.4043 103.215 50.1895 104.104 50.1895C104.993 50.1895 105.781 50.4043 106.47 50.834C107.163 51.2588 107.698 51.8716 108.074 52.6724C108.455 53.4683 108.645 54.3887 108.645 55.4336V55.9097ZM106.418 55.4263C106.418 54.3081 106.218 53.4585 105.818 52.8774C105.417 52.2964 104.846 52.0059 104.104 52.0059C103.367 52.0059 102.798 52.2939 102.397 52.8701C101.997 53.4414 101.794 54.2812 101.79 55.3896V55.9097C101.79 56.9985 101.99 57.8433 102.39 58.4438C102.791 59.0444 103.367 59.3447 104.119 59.3447C104.856 59.3447 105.422 59.0566 105.818 58.4805C106.213 57.8994 106.414 57.0547 106.418 55.9463V55.4263ZM118.613 57.4478C118.53 58.5952 118.105 59.4985 117.339 60.1577C116.577 60.8169 115.571 61.1465 114.321 61.1465C112.954 61.1465 111.877 60.6875 111.091 59.7695C110.31 58.8467 109.919 57.582 109.919 55.9756V55.3237C109.919 54.2983 110.1 53.395 110.461 52.6138C110.823 51.8325 111.338 51.2344 112.007 50.8193C112.681 50.3994 113.462 50.1895 114.351 50.1895C115.581 50.1895 116.572 50.519 117.324 51.1782C118.076 51.8374 118.511 52.7627 118.628 53.9541H116.431C116.377 53.2656 116.184 52.7676 115.852 52.46C115.525 52.1475 115.024 51.9912 114.351 51.9912C113.618 51.9912 113.069 52.2549 112.703 52.7822C112.341 53.3047 112.156 54.1177 112.146 55.2212V56.0269C112.146 57.1792 112.319 58.0215 112.666 58.5537C113.018 59.0859 113.569 59.3521 114.321 59.3521C115 59.3521 115.505 59.1982 115.837 58.8906C116.174 58.5781 116.367 58.0972 116.416 57.4478H118.613ZM127.864 52.1157H124.597V61H122.4V52.1157H119.177V50.3359H127.864V52.1157ZM133.123 55.375L135.063 50.3359H137.437L133.708 59.1323L133.408 59.7109C132.856 60.6729 132.012 61.1538 130.874 61.1538L130.105 61.1245L130.083 59.3594C130.2 59.3789 130.391 59.3887 130.654 59.3887C130.962 59.3887 131.208 59.335 131.394 59.2275C131.584 59.1201 131.743 58.9224 131.87 58.6343L132.141 57.9385L128.398 50.3359H130.764L133.123 55.375ZM147.288 61H145.083V52.1157H140.813V61H138.616V50.3359H147.288V61ZM151.455 54.1812H153.169C154.424 54.1812 155.417 54.4863 156.15 55.0967C156.887 55.7021 157.256 56.52 157.256 57.5503C157.256 58.5854 156.89 59.418 156.157 60.0479C155.43 60.6729 154.46 60.9902 153.25 61H149.243V50.3359H151.455V54.1812ZM160.369 61H158.171V50.3359H160.369V61ZM151.455 55.9536V59.2349H153.206C153.767 59.2349 154.214 59.0811 154.546 58.7734C154.883 58.4658 155.051 58.0532 155.051 57.5356C155.051 57.0522 154.89 56.6714 154.568 56.3931C154.25 56.1099 153.813 55.9634 153.257 55.9536H151.455Z" fill="#373737"/>
<path d="M176.647 160H57V0H176.647V160ZM63.0838 153.924H170.563V6.07595H63.0838V153.924Z" fill="#373737"/>
<path d="M161.228 91H72V97.076H161.228V91Z" fill="#373737"/>
<path d="M161.228 115.729H72V121.805H161.228V115.729Z" fill="#373737"/>
<path d="M161.228 103.365H72V109.44H161.228V103.365Z" fill="#373737"/>
<path d="M132.838 128.094H72V134.17H132.838V128.094Z" fill="#373737"/>
<path d="M43 80H0V86H43V80Z" fill="#373737"/>
<path d="M58.1548 83.2364L38.6686 94.4709V72L58.1548 83.2364Z" fill="#373737"/>
<path d="M219 80H176V86H219V80Z" fill="#373737"/>
<path d="M234.155 83.2364L214.669 94.4709V72L234.155 83.2364Z" fill="#373737"/>
</svg>
