<svg width="211" height="112" viewBox="0 0 211 112" fill="none" xmlns="http://www.w3.org/2000/svg">
<path d="M102.233 52.1984H0V58.2743H102.233V52.1984Z" fill="#373737"/>
<path d="M117.155 55.2364L97.6686 66.4709V44L117.155 55.2364Z" fill="#373737"/>
<path d="M152.713 78.5532C152.586 80.3127 151.934 81.6978 150.759 82.7085C149.591 83.7192 148.049 84.2246 146.132 84.2246C144.035 84.2246 142.385 83.5208 141.179 82.1133C139.981 80.6982 139.382 78.7591 139.382 76.2959V75.2964C139.382 73.7241 139.659 72.339 140.213 71.1411C140.767 69.9432 141.557 69.026 142.583 68.3896C143.616 67.7458 144.814 67.4238 146.177 67.4238C148.063 67.4238 149.583 67.9292 150.736 68.9399C151.889 69.9507 152.556 71.3695 152.735 73.1963H149.366C149.284 72.1406 148.988 71.377 148.479 70.9053C147.977 70.4261 147.21 70.1865 146.177 70.1865C145.054 70.1865 144.211 70.5908 143.65 71.3994C143.096 72.2005 142.811 73.4471 142.796 75.1392V76.3745C142.796 78.1414 143.062 79.4329 143.594 80.249C144.133 81.0651 144.979 81.4731 146.132 81.4731C147.173 81.4731 147.947 81.2373 148.457 80.7656C148.973 80.2865 149.269 79.549 149.344 78.5532H152.713ZM166.897 70.3774H161.888V84H158.519V70.3774H153.578V67.6484H166.897V70.3774ZM176.712 80.6309H170.805L169.682 84H166.1L172.187 67.6484H175.309L181.429 84H177.847L176.712 80.6309ZM171.715 77.9019H175.803L173.748 71.7812L171.715 77.9019ZM186.326 78.2388V84H182.957V67.6484H189.335C190.563 67.6484 191.641 67.873 192.57 68.3223C193.506 68.7715 194.224 69.4116 194.726 70.2427C195.228 71.0662 195.479 72.0059 195.479 73.0615C195.479 74.6637 194.928 75.929 193.828 76.8574C192.735 77.7783 191.218 78.2388 189.279 78.2388H186.326ZM186.326 75.5098H189.335C190.226 75.5098 190.904 75.3001 191.368 74.8809C191.84 74.4616 192.076 73.8626 192.076 73.084C192.076 72.2829 191.84 71.6353 191.368 71.1411C190.896 70.647 190.245 70.3924 189.414 70.3774H186.326V75.5098ZM210.112 70.3774H205.103V84H201.734V70.3774H196.792V67.6484H210.112V70.3774ZM143.38 105.239V111H140.011V94.6484H146.39C147.618 94.6484 148.696 94.873 149.625 95.3223C150.56 95.7715 151.279 96.4116 151.781 97.2427C152.282 98.0662 152.533 99.0059 152.533 100.062C152.533 101.664 151.983 102.929 150.882 103.857C149.789 104.778 148.273 105.239 146.334 105.239H143.38ZM143.38 102.51H146.39C147.281 102.51 147.959 102.3 148.423 101.881C148.895 101.462 149.13 100.863 149.13 100.084C149.13 99.2829 148.895 98.6353 148.423 98.1411C147.951 97.647 147.3 97.3924 146.469 97.3774H143.38V102.51ZM162.09 107.631H156.183L155.06 111H151.478L157.564 94.6484H160.687L166.807 111H163.225L162.09 107.631ZM157.093 104.902H161.181L159.125 98.7812L157.093 104.902ZM179.003 97.3774H171.704V100.544H174.332C176.256 100.544 177.779 101.012 178.902 101.948C180.033 102.877 180.598 104.131 180.598 105.71C180.598 107.298 180.037 108.574 178.914 109.54C177.798 110.498 176.312 110.985 174.455 111H168.301V94.6484H179.003V97.3774ZM171.704 103.262V108.293H174.388C175.249 108.293 175.934 108.058 176.443 107.586C176.959 107.114 177.218 106.482 177.218 105.688C177.218 104.947 176.971 104.363 176.477 103.936C175.99 103.502 175.32 103.277 174.466 103.262H171.704ZM196.186 103.195C196.186 104.805 195.902 106.216 195.333 107.429C194.764 108.642 193.947 109.577 192.884 110.236C191.829 110.895 190.616 111.225 189.246 111.225C187.89 111.225 186.681 110.899 185.618 110.248C184.555 109.596 183.731 108.668 183.147 107.462C182.563 106.25 182.268 104.857 182.26 103.285V102.476C182.26 100.866 182.549 99.4513 183.125 98.231C183.709 97.0031 184.529 96.0635 185.584 95.4121C186.648 94.7533 187.861 94.4238 189.223 94.4238C190.586 94.4238 191.795 94.7533 192.851 95.4121C193.914 96.0635 194.734 97.0031 195.31 98.231C195.894 99.4513 196.186 100.863 196.186 102.465V103.195ZM192.772 102.454C192.772 100.739 192.465 99.4364 191.851 98.5454C191.237 97.6545 190.361 97.209 189.223 97.209C188.093 97.209 187.22 97.6507 186.606 98.5342C185.993 99.4102 185.682 100.698 185.674 102.397V103.195C185.674 104.864 185.981 106.16 186.595 107.081C187.209 108.001 188.093 108.462 189.246 108.462C190.376 108.462 191.245 108.02 191.851 107.137C192.458 106.246 192.764 104.951 192.772 103.251V102.454ZM209.977 97.3774H204.968V111H201.599V97.3774H196.658V94.6484H209.977V97.3774Z" fill="#373737"/>
<path d="M199.673 0C193.657 6.57251 184.842 16.2008 177.533 24.1868C174.39 27.6216 171.559 30.7115 169.315 33.163L152.823 16.9519L143 26.6076L169.85 53L174.744 47.6532C174.744 47.6532 197.971 22.2748 210 9.12981L199.673 0Z" fill="#78BB2F"/>
</svg>
