<svg width="235" height="160" viewBox="0 0 235 160" fill="none" xmlns="http://www.w3.org/2000/svg">
<path d="M58.959 36.2109H47.4316V68H41.0586V36.2109H29.6328V31.0312H58.959V36.2109ZM82.3184 41.1113C82.3184 39.4525 81.6921 38.1322 80.4395 37.1504C79.1868 36.1686 77.4857 35.6777 75.3359 35.6777C73.4909 35.6777 71.9505 36.1686 70.7148 37.1504C69.4792 38.1152 68.8613 39.3678 68.8613 40.9082H62.4629C62.4629 38.8939 63.0215 37.0996 64.1387 35.5254C65.2559 33.9512 66.8047 32.7324 68.7852 31.8691C70.7656 30.9889 72.9492 30.5488 75.3359 30.5488C79.5677 30.5488 82.8516 31.4714 85.1875 33.3164C87.5404 35.1615 88.7168 37.7428 88.7168 41.0605C88.7168 42.7363 88.209 44.2767 87.1934 45.6816C86.1777 47.0866 84.7559 48.1953 82.9277 49.0078C84.9928 49.7188 86.5671 50.8021 87.6504 52.2578C88.7507 53.6966 89.3008 55.4909 89.3008 57.6406C89.3008 60.9583 88.0312 63.599 85.4922 65.5625C82.9531 67.5091 79.5677 68.4824 75.3359 68.4824C72.7292 68.4824 70.3678 68.0169 68.252 67.0859C66.153 66.1549 64.5703 64.8854 63.5039 63.2773C62.4544 61.6693 61.9297 59.8242 61.9297 57.7422H68.3281C68.3281 59.3333 68.9883 60.679 70.3086 61.7793C71.6289 62.8626 73.3047 63.4043 75.3359 63.4043C77.6042 63.4043 79.4238 62.8711 80.7949 61.8047C82.1829 60.7383 82.877 59.3503 82.877 57.6406C82.877 55.5586 82.2676 54.0521 81.0488 53.1211C79.847 52.1732 78.0781 51.6992 75.7422 51.6992H71.4004V46.6211H75.5137C80.0501 46.6211 82.3184 44.7845 82.3184 41.1113Z" fill="#373737"/>
<path d="M119.647 160H0V0H119.647V160ZM6.08376 153.924H113.563V6.07595H6.08376V153.924Z" fill="#373737"/>
<path d="M104.228 88.476H15V94.5519H104.228V88.476Z" fill="#373737"/>
<path d="M104.228 113.205H15V119.281H104.228V113.205Z" fill="#373737"/>
<path d="M104.228 100.84H15V106.916H104.228V100.84Z" fill="#373737"/>
<path d="M75.8376 125.57H15V131.646H75.8376V125.57Z" fill="#373737"/>
<path d="M219.745 77.1984H117.512V83.2743H219.745V77.1984Z" fill="#373737"/>
<path d="M234.667 80.2364L215.18 91.4709V69L234.667 80.2364Z" fill="#373737"/>
</svg>
