<svg width="84" height="30" viewBox="0 0 84 30" fill="none" xmlns="http://www.w3.org/2000/svg">
<g clip-path="url(#clip0)">
<path fill-rule="evenodd" clip-rule="evenodd" d="M15.1243 10.1415C15.1028 11.2045 14.9872 12.3239 14.8381 12.9944C14.8918 11.8401 14.7642 10.2114 14.5209 8.9402C14.2777 7.66898 13.5897 5.54446 13.0401 4.56215C12.5321 5.49877 11.9073 7.33438 11.5794 8.92811C11.2515 10.5232 11.2408 12.4515 11.2408 13.0293C11.1548 12.5429 10.9357 10.804 10.9975 9.05577C11.0486 7.61389 11.3577 6.13303 11.527 5.45174C12.172 3.17671 12.903 1.72139 13.0401 1.49026C13.1772 1.72139 14.0976 3.51131 14.5747 5.3953C15.049 7.2766 15.1458 9.07861 15.1243 10.1415ZM13.0508 18.2741C12.7646 17.6841 12.3198 16.5647 12.2782 14.8312C12.2674 13.1569 12.8815 11.7244 13.0602 11.4234C13.2202 11.7244 13.7483 12.9714 13.8114 14.6807C13.8544 16.3566 13.3465 17.6721 13.0508 18.2741ZM15.2936 5.41814C14.7118 2.63382 13.2524 0.369541 13.0508 0C12.7324 0.520045 11.5686 2.51825 10.9774 4.73684C10.331 7.20806 10.2356 9.40246 10.4587 11.5619C10.6804 13.7227 11.5162 15.9413 11.5162 15.9413C11.961 17.1064 12.6275 18.3548 13.0602 18.9662C13.6959 18.0658 15.1565 15.3756 15.6107 11.8629C15.8647 9.91041 15.8755 8.20112 15.2936 5.41814Z" fill="#B6B4B4"/>
<path d="M13.8329 19.5655H9.50325V22.8593L9.514 22.8457C10.5581 21.7063 12.3574 21.7063 13.4002 22.8457C14.4443 23.9852 14.4443 25.8317 13.4002 26.9711C13.3962 26.9765 13.3908 26.9793 13.3868 26.9847V26.986L13.3707 27.0007C12.3306 28.1295 10.9707 28.694 9.61075 28.694C8.24547 28.694 6.87884 28.1256 5.8374 26.9874C4.00045 24.9824 3.78275 21.881 5.18298 19.6155C5.37245 19.3103 5.48264 19.0189 5.7299 18.7473C6.77133 17.6106 8.13796 17.0422 9.50325 17.0422V9.24121C4.25442 9.24121 0 13.8853 0 19.6154C0 25.3453 4.26383 29.9906 9.51265 29.9906C12.2486 29.9906 14.7144 28.7262 16.4479 26.7065V19.5655H13.8329Z" fill="#B6B4B4"/>
<path fill-rule="evenodd" clip-rule="evenodd" d="M22.1671 28.3014C22.1671 29.0283 22.0851 30 20.7548 30H19.0871C17.7554 30 17.6735 28.8739 17.6735 28.1469V21.4199C17.6735 20.6929 17.7554 19.5654 19.0871 19.5654H20.7548C22.0851 19.5654 22.1671 20.6929 22.1671 21.4199V23.0431H20.1245V21.2049C20.1245 21.0262 20.0426 20.7601 19.8652 20.7601C19.7563 20.7601 19.716 20.834 19.716 21.1013V28.5177C19.716 28.7837 19.7563 28.8576 19.8652 28.8576C20.0426 28.8576 20.1245 28.695 20.1245 28.5177V26.5221H22.1671V28.3014Z" fill="#B6B4B4"/>
<path fill-rule="evenodd" clip-rule="evenodd" d="M23.3926 20.8705H22.5756V19.5655H26.6607V20.8705H25.4352V30H23.3926V20.8705Z" fill="#B6B4B4"/>
<path fill-rule="evenodd" clip-rule="evenodd" d="M29.5834 25.329C29.7877 25.329 29.9288 25.1355 29.9288 24.809V21.389C29.9288 21.0625 29.7796 20.8705 29.5754 20.8705H29.5203V25.4379L29.5834 25.329ZM27.4777 19.5655H30.426C31.7577 19.5655 31.9713 20.7454 31.9713 21.4724V24.6679C31.9713 25.3949 31.8894 26.5223 30.559 26.5223H29.5203V30H27.4777V19.5655Z" fill="#B6B4B4"/>
<path fill-rule="evenodd" clip-rule="evenodd" d="M35.6479 21.1013C35.6479 20.9241 35.4652 20.7601 35.2878 20.7601C35.1803 20.7601 34.8309 20.834 34.8309 21.1013V28.5177C34.8309 28.7837 35.1803 28.8576 35.2878 28.8576C35.4652 28.8576 35.6479 28.695 35.6479 28.5177V21.1013ZM32.7884 21.4199C32.7884 20.6929 32.8703 19.5654 34.202 19.5654H35.8697C37.2 19.5654 37.2818 20.6929 37.2818 21.4199V28.1469C37.2818 28.8739 37.2 30 35.8697 30H34.202C32.8703 30 32.7884 28.8739 32.7884 28.1469V21.4199Z" fill="#B6B4B4"/>
<path fill-rule="evenodd" clip-rule="evenodd" d="M40.55 17.3913V17.7474C40.55 17.9557 40.8378 18.2688 41.0272 18.2688C41.2448 18.2688 41.3671 18.09 41.3671 17.8977V17.3911H43.0011V17.7783C43.0011 18.2243 42.9326 19.1301 41.8051 19.1301H40.0985C38.9845 19.1301 38.9159 18.3588 38.9159 17.9288V17.3913H40.55ZM38.5076 19.5655H40.55V24.7942L40.6186 24.7418L41.2086 19.5654H43.4098V29.9999H41.3672V24.7833H41.2987L40.3526 29.9999H38.5078V19.5655H38.5076Z" fill="#B6B4B4"/>
<path fill-rule="evenodd" clip-rule="evenodd" d="M44.6352 20.8705H43.8182V19.5655H47.9033V20.8705H46.6777V30H44.6352V20.8705Z" fill="#B6B4B4"/>
<path fill-rule="evenodd" clip-rule="evenodd" d="M50.9712 25.2175C51.1755 25.2175 51.1713 25.0253 51.1713 24.6988V21.389C51.1713 21.0625 51.0223 20.8705 50.8179 20.8705H50.7628V25.2176H50.9712V25.2175ZM48.7204 19.5655H51.8138C53.1455 19.5655 53.214 20.7454 53.214 21.4724V24.6679C53.214 25.3949 53.1322 26.5223 51.8017 26.5223H50.7629V30H48.7205V19.5655H48.7204Z" fill="#B6B4B4"/>
<path fill-rule="evenodd" clip-rule="evenodd" d="M56.4914 26.0869L56.1662 20.8812H56.0573L55.7307 26.0869H56.4914ZM54.6167 19.5655H57.6052L58.5969 30H56.482V27.3917H55.6649V30H53.8038L54.6167 19.5655Z" fill="#B6B4B4"/>
<path fill-rule="evenodd" clip-rule="evenodd" d="M59.3416 19.5655H61.3841V23.914H61.7926V19.5655H63.8352V30H61.7926V25.2175H61.3841V30H59.3416V19.5655Z" fill="#B6B4B4"/>
<path fill-rule="evenodd" clip-rule="evenodd" d="M69.5543 28.3014C69.5543 29.0283 69.4725 30 68.142 30H66.473C65.1428 30 65.0607 28.8739 65.0607 28.1469V21.4199C65.0607 20.6929 65.1427 19.5654 66.473 19.5654H67.7335C69.0638 19.5654 69.1459 20.6929 69.1459 21.4199V23.0431H67.5117V21.2049C67.5117 21.0262 67.3087 20.7601 67.1315 20.7601C67.024 20.7601 66.6947 20.834 66.6947 21.1013V28.5177C66.6947 28.7837 67.024 28.8576 67.1315 28.8576C67.3087 28.8576 67.5117 28.695 67.5117 28.5177V26.5221H69.5543V28.3014Z" fill="#B6B4B4"/>
<path fill-rule="evenodd" clip-rule="evenodd" d="M70.3714 19.5655H74.048V20.8705H72.4139V30H70.3714V19.5655Z" fill="#B6B4B4"/>
<path fill-rule="evenodd" clip-rule="evenodd" d="M76.7476 26.0869L76.4211 20.8812H76.3122L75.9855 26.0869H76.7476ZM74.873 19.5655H77.8616L78.8533 30H76.9075V27.3917H75.682V30H73.8208L74.873 19.5655Z" fill="#B6B4B4"/>
<path fill-rule="evenodd" clip-rule="evenodd" d="M81.4011 26.5223V28.6723C81.4011 28.9398 81.4024 28.8578 81.5113 28.8578C81.6873 28.8578 81.8096 28.6952 81.8096 28.5178V25.9001C81.8096 25.5736 81.7559 25.2175 81.049 25.2175H80.5841V23.914H81.2452C81.7881 23.914 81.8096 23.7796 81.8096 23.1413V21.1015C81.8096 20.9241 81.7357 20.7601 81.5597 20.7601C81.4508 20.7601 81.4011 20.8341 81.4011 21.1015V23.0432H79.3586V21.5234C79.3586 20.7964 79.4405 19.5655 80.771 19.5655H82.44C83.7702 19.5655 83.8523 20.6931 83.8523 21.4201V23.1334C83.8523 24.2608 83.132 24.5726 82.5621 24.5429V24.6465C83.8387 24.6169 83.8523 25.6851 83.8523 26.0547V28.1469C83.8523 28.8739 83.7703 30 82.44 30H80.771C79.4407 30 79.3586 28.8739 79.3586 28.1469V26.5223H81.4011Z" fill="#B6B4B4"/>
</g>
<defs>
<clipPath id="clip0">
<rect width="83.8522" height="30" fill="white"/>
</clipPath>
</defs>
</svg>
