<svg width="50" height="50" viewBox="0 0 50 50" fill="none" xmlns="http://www.w3.org/2000/svg">
<circle cx="25" cy="25" r="25" fill="#0085FF"/>
<path d="M36.2 14H13.8C12.246 14 11.014 15.2237 11.014 16.75L11 33.25C11 34.7763 12.246 36 13.8 36H36.2C37.754 36 39 34.7763 39 33.25V16.75C39 15.2237 37.754 14 36.2 14ZM20.1 29.125H18.42L14.85 24.3125V29.125H13.1V20.875H14.85L18.35 25.6875V20.875H20.1V29.125ZM27.1 22.6075H23.6V24.1475H27.1V25.88H23.6V27.4062H27.1V29.125H21.5V20.875H27.1V22.6075ZM36.9 27.75C36.9 28.5063 36.27 29.125 35.5 29.125H29.9C29.13 29.125 28.5 28.5063 28.5 27.75V20.875H30.25V27.0763H31.832V22.2362H33.582V27.0625H35.15V20.875H36.9V27.75Z" fill="white"/>
</svg>
