<svg width="23" height="22" viewBox="0 0 23 22" fill="none" xmlns="http://www.w3.org/2000/svg">
<path fill-rule="evenodd" clip-rule="evenodd" d="M11.9075 0C5.83364 0 0.907471 4.92433 0.907471 11C0.907471 17.0748 5.83364 22 11.9075 22C17.9822 22 22.9075 17.0748 22.9075 11C22.9075 4.92433 17.9822 0 11.9075 0ZM14.8628 16.3818C15.0351 16.5037 15.257 16.5339 15.455 16.4597C15.6521 16.3845 15.7978 16.2149 15.8418 16.0096C16.3066 13.8261 17.4341 8.29858 17.8566 6.31308C17.8887 6.16275 17.8356 6.00692 17.7182 5.907C17.6 5.80708 17.4368 5.77867 17.292 5.83183C15.0498 6.66233 8.14455 9.25283 5.32214 10.2969C5.14339 10.3638 5.02697 10.5352 5.03247 10.725C5.03889 10.9138 5.1663 11.0779 5.34964 11.1329C6.61555 11.5115 8.27655 12.0386 8.27655 12.0386C8.27655 12.0386 9.05297 14.3834 9.45722 15.5751C9.50855 15.7254 9.62589 15.8427 9.77989 15.8831C9.9348 15.9234 10.0989 15.8812 10.2144 15.7722C10.8643 15.1589 11.869 14.2102 11.869 14.2102C11.869 14.2102 13.7793 15.6099 14.8628 16.3818ZM8.97505 11.7416L9.87339 14.7033L10.0732 12.8278C10.0732 12.8278 13.541 9.69925 15.5191 7.91633C15.5769 7.86408 15.5842 7.77608 15.5366 7.71467C15.4889 7.65325 15.4009 7.63858 15.3358 7.68075C13.0441 9.14375 8.97505 11.7416 8.97505 11.7416Z" fill="#4D4D4D"/>
</svg>
