<svg width="25" height="20" viewBox="0 0 25 20" fill="none" xmlns="http://www.w3.org/2000/svg">
<path d="M8.17599 19.8362C17.387 19.8362 22.4238 12.2053 22.4238 5.5884C22.4238 5.37166 22.4194 5.1559 22.4096 4.94111C23.3874 4.23426 24.2373 3.35216 24.9075 2.34802C24.0103 2.74685 23.0447 3.01534 22.0318 3.1364C23.0657 2.51644 23.8595 1.53573 24.2339 0.3666C23.2663 0.940183 22.1948 1.35707 21.054 1.58211C20.1402 0.608728 18.8393 0 17.3987 0C14.6333 0 12.3907 2.24259 12.3907 5.00701C12.3907 5.39997 12.4347 5.7822 12.5206 6.1488C8.35857 5.93938 4.66812 3.94674 2.19854 0.916756C1.76848 1.6568 1.5205 2.51644 1.5205 3.43368C1.5205 5.17103 2.40454 6.70481 3.74892 7.60204C2.92736 7.57666 2.15558 7.35113 1.48095 6.97574C1.48022 6.99675 1.48022 7.01723 1.48022 7.03969C1.48022 9.46484 3.20633 11.4897 5.49774 11.9486C5.07695 12.0633 4.63419 12.1248 4.17728 12.1248C3.85509 12.1248 3.54121 12.0931 3.23611 12.0345C3.87364 14.0242 5.72229 15.4721 7.91411 15.5126C6.20019 16.856 4.04108 17.6561 1.69452 17.6561C1.29081 17.6561 0.891989 17.6331 0.5 17.5868C2.71623 19.0073 5.34787 19.8362 8.17624 19.8362" fill="#B4B4B4"/>
</svg>
