<svg width="49" height="30" viewBox="0 0 49 30" fill="none" xmlns="http://www.w3.org/2000/svg">
<g clip-path="url(#clip0)">
<path d="M10.9684 5.07803V9.54728C9.12762 4.554 5.36328 5.0956 5.36328 5.0956C6.2408 10.3587 9.77982 10.8258 10.9684 10.831V11.2517C10.9684 11.814 10.8516 12.3618 10.617 12.8941C10.3845 13.4274 10.032 13.8698 9.56483 14.2202C9.09351 14.5685 8.52917 14.7576 7.87284 14.7824V16.2057C8.44338 16.2057 8.99429 16.0889 9.53589 15.8532C10.0744 15.6186 10.5591 15.2785 10.9922 14.8382C11.4232 14.3959 11.7622 13.8677 12.0155 13.2517C12.2666 12.6398 12.3917 11.97 12.3917 11.2517V5.07803H10.9684Z" fill="#B4B4B4"/>
<path fill-rule="evenodd" clip-rule="evenodd" d="M30.0745 11.3302C29.1318 12.9023 27.2125 13.2631 27.2125 13.2631C27.2125 13.2631 26.6048 11.3954 27.5412 9.83153C28.4787 8.26667 30.4084 7.90801 30.4084 7.90801C30.4084 7.90801 31.0119 9.76021 30.0745 11.3302ZM31.5225 6.12507C32.4962 3.65375 35.0914 4.33799 35.0914 4.33799C33.844 7.13075 31.5225 6.12507 31.5225 6.12507ZM31.5225 6.12507C31.5225 6.12507 29.6838 5.11008 31.0285 1.8429C31.0285 1.8429 32.7174 3.66615 31.5225 6.12507ZM32.6853 12.9695C32.279 13.6734 31.7281 14.2264 31.0357 14.6357C30.3401 15.0419 29.5887 15.2445 28.7763 15.2445C27.9618 15.2445 27.8243 14.1541 27.1256 13.7488C26.4216 13.3395 25.2486 13.6703 24.8352 12.9664C24.4259 12.2646 24.2223 11.5008 24.2223 10.6811C24.2223 9.86563 24.4259 9.10698 24.8352 8.40414C25.2486 7.70129 25.8036 7.14522 26.5075 6.73282C27.2083 6.32248 27.965 6.11783 28.7763 6.11783C29.5887 6.11783 29.9453 7.25168 30.6388 7.66098C31.3324 8.07339 32.2791 7.70129 32.6854 8.40414C33.0916 9.10388 33.2951 9.8646 33.2951 10.6811C33.2951 11.5039 33.0915 12.2667 32.6853 12.9695ZM33.934 7.67752C33.4007 6.75349 32.2947 7.0553 31.3779 6.5137C30.4622 5.97416 29.8461 4.67287 28.7764 4.67287C27.6921 4.67287 26.6947 4.94367 25.78 5.48114C24.8632 6.01964 24.1386 6.75142 23.6063 7.67649C23.2715 8.2584 23.041 8.87235 22.9169 9.51628H22.0229V5.08734H20.5531V16.2408H22.0229V11.8119H22.9128C23.0327 12.4672 23.2642 13.0935 23.6063 13.6868C24.1386 14.6098 25.6539 14.2357 26.5686 14.7752C27.4854 15.3127 27.6921 16.6884 28.7764 16.6884C29.8461 16.6884 30.8435 16.4186 31.7583 15.878C32.6731 15.3395 33.4008 14.6077 33.9341 13.6858C34.4704 12.7618 34.7403 11.7592 34.7403 10.6811C34.7401 9.60207 34.4703 8.60259 33.934 7.67752Z" fill="#B4B4B4"/>
<path d="M39.6671 12.9075C39.2568 12.2977 38.9591 11.6207 38.7721 10.8765C38.7742 10.8765 38.7463 10.769 38.7287 10.6253C40.2604 10.2191 42.3432 8.94574 42.987 5.07804C42.987 5.07804 39.1948 4.53024 37.3602 9.5814V5.08424H35.8915V16.2398H37.3602V10.8114H37.3768C37.5772 11.568 37.8066 12.2305 38.0599 12.799C38.3183 13.3809 38.6553 13.9256 39.0728 14.4269C39.4873 14.9302 39.9959 15.3705 40.5973 15.7478C41.1947 16.124 41.6879 16.4341 42.5065 16.6801V15.1721C42.0226 15.0191 41.5494 14.77 41.0853 14.4258C40.5478 14.0238 40.0754 13.5184 39.6671 12.9075Z" fill="#B4B4B4"/>
<path fill-rule="evenodd" clip-rule="evenodd" d="M17.6259 10.2935C17.383 10.6729 17.0553 10.9716 16.6408 11.1928C16.2253 11.4129 15.7799 11.5225 15.2992 11.5225V6.65529C15.7809 6.65529 16.2295 6.76382 16.6419 6.98087C17.0553 7.20102 17.383 7.49549 17.6259 7.86666C17.8688 8.24185 17.9907 8.64599 17.9907 9.08216C17.9907 9.5142 17.8688 9.91524 17.6259 10.2935ZM17.3592 5.73953C16.7297 5.38087 16.0424 5.18449 15.2992 5.14211C14.8507 5.10697 14.3587 5.08423 13.8326 5.08423V16.2398H15.2992V12.9664C16.0341 12.9664 16.7153 12.7917 17.3478 12.4413C17.9783 12.0961 18.4806 11.6238 18.8507 11.0305C19.2207 10.4331 19.4067 9.7819 19.4067 9.07906C19.4067 8.38035 19.2217 7.73746 18.8558 7.15348C18.4879 6.56743 17.9897 6.09715 17.3592 5.73953Z" fill="#B4B4B4"/>
<path d="M10.5985 19.5544H9.8026L8.47546 20.9767V19.5544H7.87701V22.8052H8.47546V21.232L9.92869 22.8052H10.7969L9.08735 21.0842L10.5985 19.5544Z" fill="#B4B4B4"/>
<path fill-rule="evenodd" clip-rule="evenodd" d="M41.0511 19.9607C41.5638 19.9607 41.8594 20.369 41.8594 20.8673H40.1778C40.2213 20.4475 40.4651 19.9607 41.0511 19.9607ZM40.1779 21.3148H42.4982C42.4982 20.2688 42.1457 19.4802 41.0625 19.4802C40.1447 19.4802 39.539 20.1602 39.539 21.1226C39.539 22.183 40.0682 22.8848 41.2227 22.8848C41.7571 22.8848 42.0186 22.7567 42.2491 22.6719V22.0745C42.1034 22.1944 41.6413 22.397 41.2466 22.397C40.6811 22.3969 40.1779 21.9597 40.1779 21.3148Z" fill="#B4B4B4"/>
<path fill-rule="evenodd" clip-rule="evenodd" d="M31.1297 22.2873C30.5417 22.2873 30.2946 21.6177 30.2946 21.0718C30.2946 20.4641 30.5685 19.8522 31.1297 19.8522C31.6952 19.8522 31.9071 20.4641 31.9071 21.0574C31.907 21.6506 31.6755 22.2873 31.1297 22.2873ZM28.8765 22.2873C28.3194 22.2873 28.0879 21.6506 28.0879 21.0575C28.0879 20.4642 28.307 19.8523 28.8672 19.8523C29.4398 19.8523 29.7034 20.4642 29.7034 21.0719C29.7034 21.6176 29.4574 22.2873 28.8765 22.2873ZM31.2837 19.3685C30.7659 19.3685 30.4786 19.5783 30.3121 19.8842H30.2946V18.0217H29.7034V19.8842H29.6817C29.5163 19.5783 29.23 19.3685 28.7132 19.3685C27.877 19.3685 27.4501 20.1468 27.4501 21.0119C27.4501 21.9049 27.8346 22.7731 28.7132 22.7731C29.23 22.7731 29.5164 22.5437 29.6817 22.2563H29.7034V23.9659H30.2946V22.2563H30.3121C30.4786 22.5437 30.766 22.7731 31.2837 22.7731C32.1612 22.7731 32.5437 21.9049 32.5437 21.0119C32.5437 20.1468 32.1375 19.3685 31.2837 19.3685Z" fill="#B4B4B4"/>
<path fill-rule="evenodd" clip-rule="evenodd" d="M19.6465 21.5452C19.6465 22.0279 19.3333 22.3969 18.741 22.3969C18.4661 22.3969 18.1353 22.2138 18.1353 21.8697C18.1353 21.296 18.9384 21.2454 19.262 21.2454C19.3932 21.2454 19.5193 21.2578 19.6465 21.2578V21.5452ZM20.247 20.8227C20.247 19.9369 19.8697 19.4801 18.9384 19.4801C18.525 19.4801 18.1664 19.6052 17.8687 19.784L17.8997 20.2925C18.1405 20.0899 18.5054 19.9607 18.8423 19.9607C19.4418 19.9607 19.6465 20.2481 19.6465 20.8103C19.4108 20.7979 19.2444 20.7979 19.0098 20.7979C18.3906 20.7979 17.4976 21.0522 17.4976 21.8698C17.4976 22.5767 17.9896 22.8847 18.6904 22.8847C19.2372 22.8847 19.5565 22.5829 19.6971 22.3855H19.7095V22.8051H20.2707C20.2594 22.7112 20.247 22.5375 20.247 22.1674V20.8227Z" fill="#B4B4B4"/>
<path fill-rule="evenodd" clip-rule="evenodd" d="M31.4853 27.17C31.2093 27.17 31.0191 27.3829 31.0191 27.6703C31.0191 27.938 31.2071 28.1364 31.4853 28.1364C31.7561 28.1364 31.9399 27.9402 31.9399 27.6506C31.9401 27.3757 31.7602 27.17 31.4853 27.17ZM8.4031 27.8005H8.1323V28.122H8.4031C8.55814 28.122 8.59328 28.0238 8.59328 27.9597C8.59328 27.9173 8.57571 27.8005 8.4031 27.8005ZM21.8863 27.17C21.6124 27.17 21.4181 27.3829 21.4181 27.6703C21.4181 27.938 21.6103 28.1364 21.8863 28.1364C22.1592 28.1364 22.3401 27.9402 22.3401 27.6506C22.3401 27.3757 22.1612 27.17 21.8863 27.17ZM24.3597 27.4098C24.3597 27.5368 24.4641 27.5969 24.5705 27.5969H24.8651V27.2H24.5705C24.4381 27.2 24.3597 27.2817 24.3597 27.4098ZM39.7581 27.17C39.4811 27.17 39.292 27.3829 39.292 27.6703C39.292 27.938 39.4791 28.1364 39.7581 28.1364C40.031 28.1364 40.2119 27.9402 40.2119 27.6506C40.2119 27.3757 40.032 27.17 39.7581 27.17ZM0 0V30H48.3504V0H0ZM3.3354 28.4474L3.01602 27.9337L2.69664 28.4474H2.22636L2.76279 27.6341L2.26873 26.8599H2.71421L3.01292 27.3375L3.3137 26.8599H3.75814L3.25478 27.6341L3.80775 28.4474H3.3354ZM6.43928 28.4475H6.06098V27.4212L5.35607 28.4476H4.97468V26.8601H5.35607V27.8895L6.06098 26.8601H6.43928V28.4475ZM8.42894 28.4475H7.7509V26.8599H8.44961C8.77209 26.8599 8.90749 27.0811 8.90749 27.2765C8.90749 27.4263 8.80103 27.5494 8.66563 27.6061C8.85065 27.6567 8.96434 27.8025 8.96434 27.9742C8.96434 28.2212 8.78656 28.4475 8.42894 28.4475ZM11.6486 28.4475H11.2692V27.4212L10.5654 28.4476H10.185V26.8601H10.5654V27.8895L11.2692 26.8601H11.6486V28.4475ZM14.3121 28.4475H13.9328V27.7809H13.3416V28.4475H12.9623V26.8599H13.3416V27.445H13.9328V26.8599H14.3121V28.4475ZM16.4103 28.1364C16.4765 28.1364 16.678 28.1252 16.7866 27.9309H17.2145C17.0987 28.2668 16.8258 28.4982 16.431 28.4982C15.8357 28.4982 15.5535 28.0372 15.5535 27.6425C15.5535 27.2735 15.8233 26.8103 16.4165 26.8103C16.8176 26.8103 17.109 27.044 17.2145 27.3871H16.7866C16.7101 27.2413 16.5767 27.17 16.4103 27.17C16.1066 27.17 15.9359 27.3943 15.9359 27.6465C15.9359 27.9214 16.1189 28.1364 16.4103 28.1364ZM19.4109 28.4475L18.8372 27.6836V28.4475H18.4568V26.8599H18.8372V27.5876L19.4047 26.8599H19.8563L19.2248 27.6062L19.8894 28.4476H19.4109V28.4475ZM22.7008 28.4475H22.3525V28.2314H22.3452C22.1612 28.4847 21.8977 28.4981 21.814 28.4981C21.4119 28.4981 21.0388 28.1809 21.0388 27.6702C21.0388 27.1699 21.3881 26.8102 21.8274 26.8102C22.0517 26.8102 22.2305 26.9043 22.3452 27.0821H22.3525V26.8599H22.7008V28.4475ZM25.2485 28.4475H24.865V27.8397L24.3969 28.4475H23.9235L24.399 27.8853C24.1354 27.8543 23.9783 27.6424 23.9783 27.3871C23.9783 27.1174 24.1829 26.8599 24.5561 26.8599H25.2485V28.4475ZM29.4057 28.4475H29.0274V27.9027H28.8031C28.1334 27.9027 28.1736 27.5275 28.1736 27.3106V26.8599H28.5581V27.3106C28.5581 27.416 28.5469 27.5637 28.8031 27.5637H29.0274V26.8598H29.4057V28.4475ZM32.2977 28.4475H31.9463V28.2314H31.9431C31.7602 28.4847 31.4967 28.4981 31.414 28.4981C31.0088 28.4981 30.6388 28.1809 30.6388 27.6702C30.6388 27.1699 30.9871 26.8102 31.4253 26.8102C31.6496 26.8102 31.8295 26.9043 31.9431 27.0821H31.9463V26.8599H32.2977V28.4475ZM35.0739 28.4475H34.6946V27.4212L33.9907 28.4476H33.6093V26.8601H33.9907V27.8895L34.6946 26.8601H35.0739V28.4475ZM33.8697 26.2822H34.1561C34.1788 26.3721 34.2532 26.4145 34.3421 26.4145C34.4289 26.4145 34.5054 26.3721 34.5271 26.2822H34.8135C34.7814 26.5002 34.6037 26.6729 34.3421 26.6729C34.0805 26.6729 33.8996 26.5003 33.8697 26.2822ZM37.3519 28.4474L37.0346 27.9337L36.7121 28.4474H36.2429L36.7774 27.6341L36.2853 26.8599H36.7276L37.0305 27.3375L37.3313 26.8599H37.7736L37.2703 27.6341L37.8253 28.4474H37.3519ZM40.5726 28.4475H40.2233V28.2314H40.216C40.032 28.4847 39.7695 28.4981 39.6868 28.4981C39.2827 28.4981 38.9096 28.1809 38.9096 27.6702C38.9096 27.1699 39.2609 26.8102 39.6972 26.8102C39.9234 26.8102 40.1013 26.9043 40.216 27.0821H40.2233V26.8599H40.5726V28.4475ZM43.2331 28.4475H42.8517V27.7809H42.2625V28.4475H41.8802V26.8599H42.2625V27.445H42.8517V26.8599H43.2331V28.4475ZM46.124 28.4475H45.7747V28.2314H45.7695C45.5855 28.4847 45.3239 28.4981 45.2393 28.4981C44.834 28.4981 44.4629 28.1809 44.4629 27.6702C44.4629 27.1699 44.8123 26.8102 45.2505 26.8102C45.4769 26.8102 45.6536 26.9043 45.7695 27.0821H45.7747V26.8599H46.124V28.4475ZM47.8636 24.8455H0.486822V0.486822H47.8636V24.8455ZM8.53643 27.3302C8.53643 27.2682 8.50129 27.1876 8.38036 27.1876H8.1323V27.474H8.38036C8.45788 27.474 8.53643 27.4264 8.53643 27.3302ZM45.3116 27.17C45.0368 27.17 44.8455 27.3829 44.8455 27.6703C44.8455 27.938 45.0357 28.1364 45.3116 28.1364C45.5814 28.1364 45.7664 27.9402 45.7664 27.6506C45.7664 27.3757 45.5855 27.17 45.3116 27.17Z" fill="#B4B4B4"/>
</g>
<defs>
<clipPath id="clip0">
<rect width="48.3504" height="30" fill="white"/>
</clipPath>
</defs>
</svg>
