<svg width="23" height="22" viewBox="0 0 23 22" fill="none" xmlns="http://www.w3.org/2000/svg">
<path d="M22.9075 10.7167C22.9075 16.6354 18.0726 21.4334 12.1074 21.4334C10.2137 21.4334 8.43465 20.9494 6.88683 20.0999L0.907471 22L2.85692 16.2502C1.87352 14.6354 1.30714 12.7414 1.30714 10.7167C1.30714 4.79796 6.14249 0 12.1074 0C18.0731 0 22.9075 4.79796 22.9075 10.7167ZM12.1074 1.70671C7.10023 1.70671 3.02729 5.7486 3.02729 10.7167C3.02729 12.6881 3.66994 14.5139 4.75698 15.9991L3.62252 19.3453L7.11196 18.2363C8.54563 19.1776 10.2631 19.7267 12.1077 19.7267C17.1141 19.7267 21.1878 15.6853 21.1878 10.7172C21.1878 5.74909 17.1144 1.70671 12.1074 1.70671ZM17.5612 13.1848C17.4945 13.0756 17.3182 13.0096 17.0538 12.8783C16.7888 12.747 15.4869 12.1112 15.2449 12.024C15.0021 11.9365 14.8252 11.8925 14.6489 12.1552C14.4727 12.4183 13.9652 13.0096 13.8105 13.1848C13.656 13.3606 13.5017 13.3826 13.2368 13.2511C12.9723 13.1198 12.1194 12.8421 11.1081 11.9475C10.3213 11.2513 9.78985 10.3918 9.63536 10.1286C9.48112 9.86578 9.61923 9.72376 9.75147 9.59298C9.87076 9.47516 10.0164 9.2862 10.1487 9.13293C10.2814 8.97942 10.3254 8.87016 10.4132 8.69464C10.5019 8.51938 10.4577 8.36611 10.3912 8.23436C10.3252 8.10309 9.79523 6.81047 9.57474 6.28442C9.35425 5.75887 9.134 5.84638 8.97927 5.84638C8.82503 5.84638 8.64829 5.82438 8.4718 5.82438C8.29532 5.82438 8.00834 5.89013 7.7656 6.15291C7.52312 6.41593 6.8394 7.05149 6.8394 8.34387C6.8394 9.63649 7.7876 10.8854 7.92034 11.0604C8.05258 11.2354 9.75123 13.9742 12.4426 15.026C15.1341 16.0774 15.1341 15.7266 15.6196 15.6826C16.1046 15.6388 17.1855 15.0473 17.407 14.4342C17.627 13.8202 17.627 13.2944 17.5612 13.1848Z" fill="#4D4D4D"/>
</svg>
